<svg xmlns="http://www.w3.org/2000/svg" xmlns:xlink="http://www.w3.org/1999/xlink" width="1024" zoomAndPan="magnify" viewBox="0 0 768 576" height="768" preserveAspectRatio="xMidYMid meet" version="1.0"><defs><filter x="0%" y="0%" width="100%" height="100%" id="5b08887533"><feColorMatrix values="0 0 0 0 1 0 0 0 0 1 0 0 0 0 1 0 0 0 1 0" color-interpolation-filters="sRGB"/></filter><g/><clipPath id="3a84efa3d9"><path d="M 51.175781 49.375 L 732.039062 49.375 L 732.039062 50.125 L 51.175781 50.125 Z M 51.175781 49.375 " clip-rule="nonzero"/></clipPath><mask id="719d81a904"><g filter="url(#5b08887533)"><rect x="-76.8" width="921.6" fill="#000000" y="-57.6" height="691.2" fill-opacity="0.2471"/></g></mask><clipPath id="91bc4aa6fe"><path d="M 0.175781 0.375 L 681.039062 0.375 L 681.039062 1.125 L 0.175781 1.125 Z M 0.175781 0.375 " clip-rule="nonzero"/></clipPath><clipPath id="e098c2ea01"><rect x="0" width="682" y="0" height="2"/></clipPath><clipPath id="d9ea7c58a9"><path d="M 51.175781 148.566406 L 732.039062 148.566406 L 732.039062 149.316406 L 51.175781 149.316406 Z M 51.175781 148.566406 " clip-rule="nonzero"/></clipPath><mask id="2587c97249"><g filter="url(#5b08887533)"><rect x="-76.8" width="921.6" fill="#000000" y="-57.6" height="691.2" fill-opacity="0.2471"/></g></mask><clipPath id="5cb36ebe28"><path d="M 0.175781 0.566406 L 681.039062 0.566406 L 681.039062 1.316406 L 0.175781 1.316406 Z M 0.175781 0.566406 " clip-rule="nonzero"/></clipPath><clipPath id="958a77eda1"><rect x="0" width="682" y="0" height="2"/></clipPath><clipPath id="c3d120518c"><path d="M 51.175781 247.753906 L 732.039062 247.753906 L 732.039062 248.503906 L 51.175781 248.503906 Z M 51.175781 247.753906 " clip-rule="nonzero"/></clipPath><mask id="3d4010a4d1"><g filter="url(#5b08887533)"><rect x="-76.8" width="921.6" fill="#000000" y="-57.6" height="691.2" fill-opacity="0.2471"/></g></mask><clipPath id="1256ae7022"><path d="M 0.175781 0.753906 L 681.039062 0.753906 L 681.039062 1.503906 L 0.175781 1.503906 Z M 0.175781 0.753906 " clip-rule="nonzero"/></clipPath><clipPath id="dde65ff4d9"><rect x="0" width="682" y="0" height="2"/></clipPath><clipPath id="35aa1ce0c6"><path d="M 51.175781 346.945312 L 732.039062 346.945312 L 732.039062 347.695312 L 51.175781 347.695312 Z M 51.175781 346.945312 " clip-rule="nonzero"/></clipPath><mask id="1760ca3a78"><g filter="url(#5b08887533)"><rect x="-76.8" width="921.6" fill="#000000" y="-57.6" height="691.2" fill-opacity="0.2471"/></g></mask><clipPath id="0dfbae8cd4"><path d="M 0.175781 0.945312 L 681.039062 0.945312 L 681.039062 1.695312 L 0.175781 1.695312 Z M 0.175781 0.945312 " clip-rule="nonzero"/></clipPath><clipPath id="ba9b0272b8"><rect x="0" width="682" y="0" height="2"/></clipPath><clipPath id="a5eb868285"><path d="M 51.175781 446.136719 L 732.039062 446.136719 L 732.039062 446.886719 L 51.175781 446.886719 Z M 51.175781 446.136719 " clip-rule="nonzero"/></clipPath><mask id="8a25788cc0"><g filter="url(#5b08887533)"><rect x="-76.8" width="921.6" fill="#000000" y="-57.6" height="691.2" fill-opacity="0.2471"/></g></mask><clipPath id="c2f5787250"><path d="M 0.175781 0.136719 L 681.039062 0.136719 L 681.039062 0.886719 L 0.175781 0.886719 Z M 0.175781 0.136719 " clip-rule="nonzero"/></clipPath><clipPath id="660cb16855"><rect x="0" width="682" y="0" height="1"/></clipPath><clipPath id="b9d85964fa"><path d="M 51.175781 545.328125 L 732.039062 545.328125 L 732.039062 546.078125 L 51.175781 546.078125 Z M 51.175781 545.328125 " clip-rule="nonzero"/></clipPath><mask id="6e0e009b38"><g filter="url(#5b08887533)"><rect x="-76.8" width="921.6" fill="#000000" y="-57.6" height="691.2" fill-opacity="0.6"/></g></mask><clipPath id="f88697ca54"><path d="M 0.175781 0.328125 L 681.039062 0.328125 L 681.039062 1 L 0.175781 1 Z M 0.175781 0.328125 " clip-rule="nonzero"/></clipPath><clipPath id="91d78e2a67"><rect x="0" width="682" y="0" height="2"/></clipPath><clipPath id="2761a7dbd0"><path d="M 51.175781 485.460938 L 82.675781 485.460938 L 82.675781 546 L 51.175781 546 Z M 51.175781 485.460938 " clip-rule="nonzero"/></clipPath><clipPath id="ce578a5d54"><path d="M 51.175781 545.703125 L 51.175781 488.308594 C 51.175781 487.648438 51.441406 487.011719 51.910156 486.542969 C 52.375 486.078125 53.011719 485.8125 53.675781 485.8125 L 79.886719 485.8125 C 80.550781 485.8125 81.183594 486.078125 81.652344 486.542969 C 82.121094 487.011719 82.382812 487.648438 82.382812 488.308594 L 82.382812 545.703125 L 51.175781 545.703125 " clip-rule="nonzero"/></clipPath><clipPath id="4b6054c739"><path d="M 110 465.960938 L 141.925781 465.960938 L 141.925781 546 L 110 546 Z M 110 465.960938 " clip-rule="nonzero"/></clipPath><clipPath id="86b6963d71"><path d="M 110.238281 545.703125 L 110.238281 468.472656 C 110.238281 467.808594 110.5 467.175781 110.96875 466.707031 C 111.4375 466.238281 112.070312 465.976562 112.734375 465.976562 L 138.945312 465.976562 C 139.609375 465.976562 140.242188 466.238281 140.710938 466.707031 C 141.179688 467.175781 141.441406 467.808594 141.441406 468.472656 L 141.441406 545.703125 L 110.238281 545.703125 " clip-rule="nonzero"/></clipPath><clipPath id="6f4de58b7b"><path d="M 169 406 L 201 406 L 201 546 L 169 546 Z M 169 406 " clip-rule="nonzero"/></clipPath><clipPath id="2553d2410b"><path d="M 169.296875 545.703125 L 169.296875 408.957031 C 169.296875 408.296875 169.558594 407.660156 170.027344 407.191406 C 170.496094 406.722656 171.132812 406.460938 171.792969 406.460938 L 198.007812 406.460938 C 198.667969 406.460938 199.304688 406.722656 199.773438 407.191406 C 200.238281 407.660156 200.503906 408.296875 200.503906 408.957031 L 200.503906 545.703125 L 169.296875 545.703125 " clip-rule="nonzero"/></clipPath><clipPath id="9762985113"><path d="M 228.175781 426.210938 L 259.675781 426.210938 L 259.675781 546 L 228.175781 546 Z M 228.175781 426.210938 " clip-rule="nonzero"/></clipPath><clipPath id="f705762476"><path d="M 228.355469 545.703125 L 228.355469 428.796875 C 228.355469 428.132812 228.621094 427.5 229.085938 427.03125 C 229.554688 426.5625 230.191406 426.300781 230.851562 426.300781 L 257.066406 426.300781 C 257.726562 426.300781 258.363281 426.5625 258.832031 427.03125 C 259.300781 427.5 259.5625 428.132812 259.5625 428.796875 L 259.5625 545.703125 L 228.355469 545.703125 " clip-rule="nonzero"/></clipPath><clipPath id="89b6611f82"><path d="M 287 366.210938 L 318.925781 366.210938 L 318.925781 546 L 287 546 Z M 287 366.210938 " clip-rule="nonzero"/></clipPath><clipPath id="390ddf481f"><path d="M 287.414062 545.703125 L 287.414062 369.28125 C 287.414062 368.617188 287.679688 367.984375 288.148438 367.515625 C 288.613281 367.046875 289.25 366.785156 289.914062 366.785156 L 316.125 366.785156 C 316.789062 366.785156 317.421875 367.046875 317.890625 367.515625 C 318.359375 367.984375 318.621094 368.617188 318.621094 369.28125 L 318.621094 545.703125 L 287.414062 545.703125 " clip-rule="nonzero"/></clipPath><clipPath id="8b26f47476"><path d="M 346 386.460938 L 378 386.460938 L 378 546 L 346 546 Z M 346 386.460938 " clip-rule="nonzero"/></clipPath><clipPath id="c7d10dcfcd"><path d="M 346.476562 545.703125 L 346.476562 389.117188 C 346.476562 388.457031 346.738281 387.820312 347.207031 387.355469 C 347.675781 386.886719 348.308594 386.621094 348.972656 386.621094 L 375.183594 386.621094 C 375.847656 386.621094 376.480469 386.886719 376.949219 387.355469 C 377.417969 387.820312 377.679688 388.457031 377.679688 389.117188 L 377.679688 545.703125 L 346.476562 545.703125 " clip-rule="nonzero"/></clipPath><clipPath id="d7796f4803"><path d="M 405.175781 287 L 437 287 L 437 546 L 405.175781 546 Z M 405.175781 287 " clip-rule="nonzero"/></clipPath><clipPath id="5a547537b1"><path d="M 405.535156 545.703125 L 405.535156 289.929688 C 405.535156 289.265625 405.796875 288.632812 406.265625 288.164062 C 406.734375 287.695312 407.371094 287.433594 408.03125 287.433594 L 434.246094 287.433594 C 434.90625 287.433594 435.542969 287.695312 436.011719 288.164062 C 436.476562 288.632812 436.742188 289.265625 436.742188 289.929688 L 436.742188 545.703125 L 405.535156 545.703125 " clip-rule="nonzero"/></clipPath><clipPath id="cb0789b78b"><path d="M 464.425781 247.710938 L 495.925781 247.710938 L 495.925781 546 L 464.425781 546 Z M 464.425781 247.710938 " clip-rule="nonzero"/></clipPath><clipPath id="7596a04758"><path d="M 464.59375 545.703125 L 464.59375 250.253906 C 464.59375 249.589844 464.859375 248.953125 465.324219 248.488281 C 465.792969 248.019531 466.429688 247.753906 467.089844 247.753906 L 493.304688 247.753906 C 493.964844 247.753906 494.601562 248.019531 495.070312 248.488281 C 495.539062 248.953125 495.800781 249.589844 495.800781 250.253906 L 495.800781 545.703125 L 464.59375 545.703125 " clip-rule="nonzero"/></clipPath><clipPath id="f423bf3cfd"><path d="M 523 188 L 555 188 L 555 546 L 523 546 Z M 523 188 " clip-rule="nonzero"/></clipPath><clipPath id="1338ea5470"><path d="M 523.652344 545.703125 L 523.652344 190.738281 C 523.652344 190.074219 523.917969 189.441406 524.386719 188.972656 C 524.851562 188.503906 525.488281 188.242188 526.152344 188.242188 L 552.363281 188.242188 C 553.027344 188.242188 553.660156 188.503906 554.128906 188.972656 C 554.597656 189.441406 554.859375 190.074219 554.859375 190.738281 L 554.859375 545.703125 L 523.652344 545.703125 " clip-rule="nonzero"/></clipPath><clipPath id="79964ed37e"><path d="M 582.175781 168.210938 L 614 168.210938 L 614 546 L 582.175781 546 Z M 582.175781 168.210938 " clip-rule="nonzero"/></clipPath><clipPath id="760dfa4165"><path d="M 582.714844 545.703125 L 582.714844 170.898438 C 582.714844 169.519531 583.832031 168.402344 585.210938 168.402344 L 611.421875 168.402344 C 612.800781 168.402344 613.917969 169.519531 613.917969 170.898438 L 613.917969 545.703125 L 582.714844 545.703125 " clip-rule="nonzero"/></clipPath><clipPath id="e395ec37e6"><path d="M 641.425781 128.460938 L 673 128.460938 L 673 546 L 641.425781 546 Z M 641.425781 128.460938 " clip-rule="nonzero"/></clipPath><clipPath id="b5613e8783"><path d="M 641.773438 545.703125 L 641.773438 131.222656 C 641.773438 129.84375 642.890625 128.726562 644.269531 128.726562 L 670.484375 128.726562 C 671.863281 128.726562 672.980469 129.84375 672.980469 131.222656 L 672.980469 545.703125 L 641.773438 545.703125 " clip-rule="nonzero"/></clipPath><clipPath id="8907061674"><path d="M 700.675781 69.210938 L 732.175781 69.210938 L 732.175781 546 L 700.675781 546 Z M 700.675781 69.210938 " clip-rule="nonzero"/></clipPath><clipPath id="7dc1abd53d"><path d="M 700.832031 545.703125 L 700.832031 71.707031 C 700.832031 71.046875 701.097656 70.410156 701.5625 69.945312 C 702.03125 69.476562 702.667969 69.210938 703.328125 69.210938 L 729.542969 69.210938 C 730.203125 69.210938 730.839844 69.476562 731.308594 69.945312 C 731.777344 70.410156 732.039062 71.046875 732.039062 71.707031 L 732.039062 545.703125 L 700.832031 545.703125 " clip-rule="nonzero"/></clipPath></defs><g fill="#664147" fill-opacity="1"><g transform="translate(57.839044, 556.422765)"><g><path d="M 0.40625 0 L 0.40625 -0.5 C 0.539062 -0.800781 0.703125 -1.066406 0.890625 -1.296875 C 1.085938 -1.535156 1.289062 -1.75 1.5 -1.9375 C 1.707031 -2.132812 1.914062 -2.3125 2.125 -2.46875 C 2.332031 -2.632812 2.519531 -2.796875 2.6875 -2.953125 C 2.863281 -3.117188 3 -3.289062 3.09375 -3.46875 C 3.195312 -3.644531 3.25 -3.847656 3.25 -4.078125 C 3.25 -4.378906 3.160156 -4.613281 2.984375 -4.78125 C 2.804688 -4.945312 2.5625 -5.03125 2.25 -5.03125 C 1.945312 -5.03125 1.695312 -4.945312 1.5 -4.78125 C 1.300781 -4.625 1.1875 -4.398438 1.15625 -4.109375 L 0.4375 -4.171875 C 0.488281 -4.609375 0.675781 -4.957031 1 -5.21875 C 1.320312 -5.488281 1.738281 -5.625 2.25 -5.625 C 2.800781 -5.625 3.226562 -5.488281 3.53125 -5.21875 C 3.832031 -4.957031 3.984375 -4.585938 3.984375 -4.109375 C 3.984375 -3.890625 3.929688 -3.671875 3.828125 -3.453125 C 3.734375 -3.242188 3.585938 -3.03125 3.390625 -2.8125 C 3.203125 -2.601562 2.832031 -2.28125 2.28125 -1.84375 C 1.976562 -1.59375 1.738281 -1.367188 1.5625 -1.171875 C 1.382812 -0.972656 1.257812 -0.78125 1.1875 -0.59375 L 4.078125 -0.59375 L 4.078125 0 Z M 0.40625 0 "/></g></g></g><g fill="#664147" fill-opacity="1"><g transform="translate(62.309988, 556.422765)"><g><path d="M 4.15625 -2.765625 C 4.15625 -1.847656 3.992188 -1.144531 3.671875 -0.65625 C 3.347656 -0.164062 2.867188 0.078125 2.234375 0.078125 C 1.585938 0.078125 1.101562 -0.160156 0.78125 -0.640625 C 0.46875 -1.128906 0.3125 -1.835938 0.3125 -2.765625 C 0.3125 -3.722656 0.46875 -4.4375 0.78125 -4.90625 C 1.09375 -5.382812 1.582031 -5.625 2.25 -5.625 C 2.90625 -5.625 3.382812 -5.382812 3.6875 -4.90625 C 4 -4.425781 4.15625 -3.710938 4.15625 -2.765625 Z M 3.4375 -2.765625 C 3.4375 -3.566406 3.34375 -4.144531 3.15625 -4.5 C 2.976562 -4.863281 2.675781 -5.046875 2.25 -5.046875 C 1.8125 -5.046875 1.5 -4.867188 1.3125 -4.515625 C 1.125 -4.160156 1.03125 -3.578125 1.03125 -2.765625 C 1.03125 -1.984375 1.125 -1.410156 1.3125 -1.046875 C 1.507812 -0.679688 1.816406 -0.5 2.234375 -0.5 C 2.648438 -0.5 2.953125 -0.679688 3.140625 -1.046875 C 3.335938 -1.421875 3.4375 -1.992188 3.4375 -2.765625 Z M 3.4375 -2.765625 "/></g></g></g><g fill="#664147" fill-opacity="1"><g transform="translate(66.780931, 556.422765)"><g><path d="M 4.15625 -2.765625 C 4.15625 -1.847656 3.992188 -1.144531 3.671875 -0.65625 C 3.347656 -0.164062 2.867188 0.078125 2.234375 0.078125 C 1.585938 0.078125 1.101562 -0.160156 0.78125 -0.640625 C 0.46875 -1.128906 0.3125 -1.835938 0.3125 -2.765625 C 0.3125 -3.722656 0.46875 -4.4375 0.78125 -4.90625 C 1.09375 -5.382812 1.582031 -5.625 2.25 -5.625 C 2.90625 -5.625 3.382812 -5.382812 3.6875 -4.90625 C 4 -4.425781 4.15625 -3.710938 4.15625 -2.765625 Z M 3.4375 -2.765625 C 3.4375 -3.566406 3.34375 -4.144531 3.15625 -4.5 C 2.976562 -4.863281 2.675781 -5.046875 2.25 -5.046875 C 1.8125 -5.046875 1.5 -4.867188 1.3125 -4.515625 C 1.125 -4.160156 1.03125 -3.578125 1.03125 -2.765625 C 1.03125 -1.984375 1.125 -1.410156 1.3125 -1.046875 C 1.507812 -0.679688 1.816406 -0.5 2.234375 -0.5 C 2.648438 -0.5 2.953125 -0.679688 3.140625 -1.046875 C 3.335938 -1.421875 3.4375 -1.992188 3.4375 -2.765625 Z M 3.4375 -2.765625 "/></g></g></g><g fill="#664147" fill-opacity="1"><g transform="translate(71.251874, 556.422765)"><g><path d="M 4.15625 -2.765625 C 4.15625 -1.847656 3.992188 -1.144531 3.671875 -0.65625 C 3.347656 -0.164062 2.867188 0.078125 2.234375 0.078125 C 1.585938 0.078125 1.101562 -0.160156 0.78125 -0.640625 C 0.46875 -1.128906 0.3125 -1.835938 0.3125 -2.765625 C 0.3125 -3.722656 0.46875 -4.4375 0.78125 -4.90625 C 1.09375 -5.382812 1.582031 -5.625 2.25 -5.625 C 2.90625 -5.625 3.382812 -5.382812 3.6875 -4.90625 C 4 -4.425781 4.15625 -3.710938 4.15625 -2.765625 Z M 3.4375 -2.765625 C 3.4375 -3.566406 3.34375 -4.144531 3.15625 -4.5 C 2.976562 -4.863281 2.675781 -5.046875 2.25 -5.046875 C 1.8125 -5.046875 1.5 -4.867188 1.3125 -4.515625 C 1.125 -4.160156 1.03125 -3.578125 1.03125 -2.765625 C 1.03125 -1.984375 1.125 -1.410156 1.3125 -1.046875 C 1.507812 -0.679688 1.816406 -0.5 2.234375 -0.5 C 2.648438 -0.5 2.953125 -0.679688 3.140625 -1.046875 C 3.335938 -1.421875 3.4375 -1.992188 3.4375 -2.765625 Z M 3.4375 -2.765625 "/></g></g></g><g fill="#664147" fill-opacity="1"><g transform="translate(116.898635, 556.422765)"><g><path d="M 0.40625 0 L 0.40625 -0.5 C 0.539062 -0.800781 0.703125 -1.066406 0.890625 -1.296875 C 1.085938 -1.535156 1.289062 -1.75 1.5 -1.9375 C 1.707031 -2.132812 1.914062 -2.3125 2.125 -2.46875 C 2.332031 -2.632812 2.519531 -2.796875 2.6875 -2.953125 C 2.863281 -3.117188 3 -3.289062 3.09375 -3.46875 C 3.195312 -3.644531 3.25 -3.847656 3.25 -4.078125 C 3.25 -4.378906 3.160156 -4.613281 2.984375 -4.78125 C 2.804688 -4.945312 2.5625 -5.03125 2.25 -5.03125 C 1.945312 -5.03125 1.695312 -4.945312 1.5 -4.78125 C 1.300781 -4.625 1.1875 -4.398438 1.15625 -4.109375 L 0.4375 -4.171875 C 0.488281 -4.609375 0.675781 -4.957031 1 -5.21875 C 1.320312 -5.488281 1.738281 -5.625 2.25 -5.625 C 2.800781 -5.625 3.226562 -5.488281 3.53125 -5.21875 C 3.832031 -4.957031 3.984375 -4.585938 3.984375 -4.109375 C 3.984375 -3.890625 3.929688 -3.671875 3.828125 -3.453125 C 3.734375 -3.242188 3.585938 -3.03125 3.390625 -2.8125 C 3.203125 -2.601562 2.832031 -2.28125 2.28125 -1.84375 C 1.976562 -1.59375 1.738281 -1.367188 1.5625 -1.171875 C 1.382812 -0.972656 1.257812 -0.78125 1.1875 -0.59375 L 4.078125 -0.59375 L 4.078125 0 Z M 0.40625 0 "/></g></g></g><g fill="#664147" fill-opacity="1"><g transform="translate(121.369579, 556.422765)"><g><path d="M 4.15625 -2.765625 C 4.15625 -1.847656 3.992188 -1.144531 3.671875 -0.65625 C 3.347656 -0.164062 2.867188 0.078125 2.234375 0.078125 C 1.585938 0.078125 1.101562 -0.160156 0.78125 -0.640625 C 0.46875 -1.128906 0.3125 -1.835938 0.3125 -2.765625 C 0.3125 -3.722656 0.46875 -4.4375 0.78125 -4.90625 C 1.09375 -5.382812 1.582031 -5.625 2.25 -5.625 C 2.90625 -5.625 3.382812 -5.382812 3.6875 -4.90625 C 4 -4.425781 4.15625 -3.710938 4.15625 -2.765625 Z M 3.4375 -2.765625 C 3.4375 -3.566406 3.34375 -4.144531 3.15625 -4.5 C 2.976562 -4.863281 2.675781 -5.046875 2.25 -5.046875 C 1.8125 -5.046875 1.5 -4.867188 1.3125 -4.515625 C 1.125 -4.160156 1.03125 -3.578125 1.03125 -2.765625 C 1.03125 -1.984375 1.125 -1.410156 1.3125 -1.046875 C 1.507812 -0.679688 1.816406 -0.5 2.234375 -0.5 C 2.648438 -0.5 2.953125 -0.679688 3.140625 -1.046875 C 3.335938 -1.421875 3.4375 -1.992188 3.4375 -2.765625 Z M 3.4375 -2.765625 "/></g></g></g><g fill="#664147" fill-opacity="1"><g transform="translate(125.840522, 556.422765)"><g><path d="M 4.15625 -2.765625 C 4.15625 -1.847656 3.992188 -1.144531 3.671875 -0.65625 C 3.347656 -0.164062 2.867188 0.078125 2.234375 0.078125 C 1.585938 0.078125 1.101562 -0.160156 0.78125 -0.640625 C 0.46875 -1.128906 0.3125 -1.835938 0.3125 -2.765625 C 0.3125 -3.722656 0.46875 -4.4375 0.78125 -4.90625 C 1.09375 -5.382812 1.582031 -5.625 2.25 -5.625 C 2.90625 -5.625 3.382812 -5.382812 3.6875 -4.90625 C 4 -4.425781 4.15625 -3.710938 4.15625 -2.765625 Z M 3.4375 -2.765625 C 3.4375 -3.566406 3.34375 -4.144531 3.15625 -4.5 C 2.976562 -4.863281 2.675781 -5.046875 2.25 -5.046875 C 1.8125 -5.046875 1.5 -4.867188 1.3125 -4.515625 C 1.125 -4.160156 1.03125 -3.578125 1.03125 -2.765625 C 1.03125 -1.984375 1.125 -1.410156 1.3125 -1.046875 C 1.507812 -0.679688 1.816406 -0.5 2.234375 -0.5 C 2.648438 -0.5 2.953125 -0.679688 3.140625 -1.046875 C 3.335938 -1.421875 3.4375 -1.992188 3.4375 -2.765625 Z M 3.4375 -2.765625 "/></g></g></g><g fill="#664147" fill-opacity="1"><g transform="translate(130.311465, 556.422765)"><g><path d="M 0.40625 0 L 0.40625 -0.5 C 0.539062 -0.800781 0.703125 -1.066406 0.890625 -1.296875 C 1.085938 -1.535156 1.289062 -1.75 1.5 -1.9375 C 1.707031 -2.132812 1.914062 -2.3125 2.125 -2.46875 C 2.332031 -2.632812 2.519531 -2.796875 2.6875 -2.953125 C 2.863281 -3.117188 3 -3.289062 3.09375 -3.46875 C 3.195312 -3.644531 3.25 -3.847656 3.25 -4.078125 C 3.25 -4.378906 3.160156 -4.613281 2.984375 -4.78125 C 2.804688 -4.945312 2.5625 -5.03125 2.25 -5.03125 C 1.945312 -5.03125 1.695312 -4.945312 1.5 -4.78125 C 1.300781 -4.625 1.1875 -4.398438 1.15625 -4.109375 L 0.4375 -4.171875 C 0.488281 -4.609375 0.675781 -4.957031 1 -5.21875 C 1.320312 -5.488281 1.738281 -5.625 2.25 -5.625 C 2.800781 -5.625 3.226562 -5.488281 3.53125 -5.21875 C 3.832031 -4.957031 3.984375 -4.585938 3.984375 -4.109375 C 3.984375 -3.890625 3.929688 -3.671875 3.828125 -3.453125 C 3.734375 -3.242188 3.585938 -3.03125 3.390625 -2.8125 C 3.203125 -2.601562 2.832031 -2.28125 2.28125 -1.84375 C 1.976562 -1.59375 1.738281 -1.367188 1.5625 -1.171875 C 1.382812 -0.972656 1.257812 -0.78125 1.1875 -0.59375 L 4.078125 -0.59375 L 4.078125 0 Z M 0.40625 0 "/></g></g></g><g fill="#664147" fill-opacity="1"><g transform="translate(175.95821, 556.422765)"><g><path d="M 0.40625 0 L 0.40625 -0.5 C 0.539062 -0.800781 0.703125 -1.066406 0.890625 -1.296875 C 1.085938 -1.535156 1.289062 -1.75 1.5 -1.9375 C 1.707031 -2.132812 1.914062 -2.3125 2.125 -2.46875 C 2.332031 -2.632812 2.519531 -2.796875 2.6875 -2.953125 C 2.863281 -3.117188 3 -3.289062 3.09375 -3.46875 C 3.195312 -3.644531 3.25 -3.847656 3.25 -4.078125 C 3.25 -4.378906 3.160156 -4.613281 2.984375 -4.78125 C 2.804688 -4.945312 2.5625 -5.03125 2.25 -5.03125 C 1.945312 -5.03125 1.695312 -4.945312 1.5 -4.78125 C 1.300781 -4.625 1.1875 -4.398438 1.15625 -4.109375 L 0.4375 -4.171875 C 0.488281 -4.609375 0.675781 -4.957031 1 -5.21875 C 1.320312 -5.488281 1.738281 -5.625 2.25 -5.625 C 2.800781 -5.625 3.226562 -5.488281 3.53125 -5.21875 C 3.832031 -4.957031 3.984375 -4.585938 3.984375 -4.109375 C 3.984375 -3.890625 3.929688 -3.671875 3.828125 -3.453125 C 3.734375 -3.242188 3.585938 -3.03125 3.390625 -2.8125 C 3.203125 -2.601562 2.832031 -2.28125 2.28125 -1.84375 C 1.976562 -1.59375 1.738281 -1.367188 1.5625 -1.171875 C 1.382812 -0.972656 1.257812 -0.78125 1.1875 -0.59375 L 4.078125 -0.59375 L 4.078125 0 Z M 0.40625 0 "/></g></g></g><g fill="#664147" fill-opacity="1"><g transform="translate(180.429153, 556.422765)"><g><path d="M 4.15625 -2.765625 C 4.15625 -1.847656 3.992188 -1.144531 3.671875 -0.65625 C 3.347656 -0.164062 2.867188 0.078125 2.234375 0.078125 C 1.585938 0.078125 1.101562 -0.160156 0.78125 -0.640625 C 0.46875 -1.128906 0.3125 -1.835938 0.3125 -2.765625 C 0.3125 -3.722656 0.46875 -4.4375 0.78125 -4.90625 C 1.09375 -5.382812 1.582031 -5.625 2.25 -5.625 C 2.90625 -5.625 3.382812 -5.382812 3.6875 -4.90625 C 4 -4.425781 4.15625 -3.710938 4.15625 -2.765625 Z M 3.4375 -2.765625 C 3.4375 -3.566406 3.34375 -4.144531 3.15625 -4.5 C 2.976562 -4.863281 2.675781 -5.046875 2.25 -5.046875 C 1.8125 -5.046875 1.5 -4.867188 1.3125 -4.515625 C 1.125 -4.160156 1.03125 -3.578125 1.03125 -2.765625 C 1.03125 -1.984375 1.125 -1.410156 1.3125 -1.046875 C 1.507812 -0.679688 1.816406 -0.5 2.234375 -0.5 C 2.648438 -0.5 2.953125 -0.679688 3.140625 -1.046875 C 3.335938 -1.421875 3.4375 -1.992188 3.4375 -2.765625 Z M 3.4375 -2.765625 "/></g></g></g><g fill="#664147" fill-opacity="1"><g transform="translate(184.900096, 556.422765)"><g><path d="M 4.15625 -2.765625 C 4.15625 -1.847656 3.992188 -1.144531 3.671875 -0.65625 C 3.347656 -0.164062 2.867188 0.078125 2.234375 0.078125 C 1.585938 0.078125 1.101562 -0.160156 0.78125 -0.640625 C 0.46875 -1.128906 0.3125 -1.835938 0.3125 -2.765625 C 0.3125 -3.722656 0.46875 -4.4375 0.78125 -4.90625 C 1.09375 -5.382812 1.582031 -5.625 2.25 -5.625 C 2.90625 -5.625 3.382812 -5.382812 3.6875 -4.90625 C 4 -4.425781 4.15625 -3.710938 4.15625 -2.765625 Z M 3.4375 -2.765625 C 3.4375 -3.566406 3.34375 -4.144531 3.15625 -4.5 C 2.976562 -4.863281 2.675781 -5.046875 2.25 -5.046875 C 1.8125 -5.046875 1.5 -4.867188 1.3125 -4.515625 C 1.125 -4.160156 1.03125 -3.578125 1.03125 -2.765625 C 1.03125 -1.984375 1.125 -1.410156 1.3125 -1.046875 C 1.507812 -0.679688 1.816406 -0.5 2.234375 -0.5 C 2.648438 -0.5 2.953125 -0.679688 3.140625 -1.046875 C 3.335938 -1.421875 3.4375 -1.992188 3.4375 -2.765625 Z M 3.4375 -2.765625 "/></g></g></g><g fill="#664147" fill-opacity="1"><g transform="translate(189.37104, 556.422765)"><g><path d="M 3.46875 -1.25 L 3.46875 0 L 2.796875 0 L 2.796875 -1.25 L 0.1875 -1.25 L 0.1875 -1.796875 L 2.71875 -5.53125 L 3.46875 -5.53125 L 3.46875 -1.8125 L 4.234375 -1.8125 L 4.234375 -1.25 Z M 2.796875 -4.734375 C 2.785156 -4.722656 2.742188 -4.65625 2.671875 -4.53125 C 2.609375 -4.40625 2.5625 -4.316406 2.53125 -4.265625 L 0.90625 -1.890625 L 0.84375 -1.8125 L 2.796875 -1.8125 Z M 2.796875 -4.734375 "/></g></g></g><g fill="#664147" fill-opacity="1"><g transform="translate(235.017823, 556.422765)"><g><path d="M 0.40625 0 L 0.40625 -0.5 C 0.539062 -0.800781 0.703125 -1.066406 0.890625 -1.296875 C 1.085938 -1.535156 1.289062 -1.75 1.5 -1.9375 C 1.707031 -2.132812 1.914062 -2.3125 2.125 -2.46875 C 2.332031 -2.632812 2.519531 -2.796875 2.6875 -2.953125 C 2.863281 -3.117188 3 -3.289062 3.09375 -3.46875 C 3.195312 -3.644531 3.25 -3.847656 3.25 -4.078125 C 3.25 -4.378906 3.160156 -4.613281 2.984375 -4.78125 C 2.804688 -4.945312 2.5625 -5.03125 2.25 -5.03125 C 1.945312 -5.03125 1.695312 -4.945312 1.5 -4.78125 C 1.300781 -4.625 1.1875 -4.398438 1.15625 -4.109375 L 0.4375 -4.171875 C 0.488281 -4.609375 0.675781 -4.957031 1 -5.21875 C 1.320312 -5.488281 1.738281 -5.625 2.25 -5.625 C 2.800781 -5.625 3.226562 -5.488281 3.53125 -5.21875 C 3.832031 -4.957031 3.984375 -4.585938 3.984375 -4.109375 C 3.984375 -3.890625 3.929688 -3.671875 3.828125 -3.453125 C 3.734375 -3.242188 3.585938 -3.03125 3.390625 -2.8125 C 3.203125 -2.601562 2.832031 -2.28125 2.28125 -1.84375 C 1.976562 -1.59375 1.738281 -1.367188 1.5625 -1.171875 C 1.382812 -0.972656 1.257812 -0.78125 1.1875 -0.59375 L 4.078125 -0.59375 L 4.078125 0 Z M 0.40625 0 "/></g></g></g><g fill="#664147" fill-opacity="1"><g transform="translate(239.488766, 556.422765)"><g><path d="M 4.15625 -2.765625 C 4.15625 -1.847656 3.992188 -1.144531 3.671875 -0.65625 C 3.347656 -0.164062 2.867188 0.078125 2.234375 0.078125 C 1.585938 0.078125 1.101562 -0.160156 0.78125 -0.640625 C 0.46875 -1.128906 0.3125 -1.835938 0.3125 -2.765625 C 0.3125 -3.722656 0.46875 -4.4375 0.78125 -4.90625 C 1.09375 -5.382812 1.582031 -5.625 2.25 -5.625 C 2.90625 -5.625 3.382812 -5.382812 3.6875 -4.90625 C 4 -4.425781 4.15625 -3.710938 4.15625 -2.765625 Z M 3.4375 -2.765625 C 3.4375 -3.566406 3.34375 -4.144531 3.15625 -4.5 C 2.976562 -4.863281 2.675781 -5.046875 2.25 -5.046875 C 1.8125 -5.046875 1.5 -4.867188 1.3125 -4.515625 C 1.125 -4.160156 1.03125 -3.578125 1.03125 -2.765625 C 1.03125 -1.984375 1.125 -1.410156 1.3125 -1.046875 C 1.507812 -0.679688 1.816406 -0.5 2.234375 -0.5 C 2.648438 -0.5 2.953125 -0.679688 3.140625 -1.046875 C 3.335938 -1.421875 3.4375 -1.992188 3.4375 -2.765625 Z M 3.4375 -2.765625 "/></g></g></g><g fill="#664147" fill-opacity="1"><g transform="translate(243.959709, 556.422765)"><g><path d="M 4.15625 -2.765625 C 4.15625 -1.847656 3.992188 -1.144531 3.671875 -0.65625 C 3.347656 -0.164062 2.867188 0.078125 2.234375 0.078125 C 1.585938 0.078125 1.101562 -0.160156 0.78125 -0.640625 C 0.46875 -1.128906 0.3125 -1.835938 0.3125 -2.765625 C 0.3125 -3.722656 0.46875 -4.4375 0.78125 -4.90625 C 1.09375 -5.382812 1.582031 -5.625 2.25 -5.625 C 2.90625 -5.625 3.382812 -5.382812 3.6875 -4.90625 C 4 -4.425781 4.15625 -3.710938 4.15625 -2.765625 Z M 3.4375 -2.765625 C 3.4375 -3.566406 3.34375 -4.144531 3.15625 -4.5 C 2.976562 -4.863281 2.675781 -5.046875 2.25 -5.046875 C 1.8125 -5.046875 1.5 -4.867188 1.3125 -4.515625 C 1.125 -4.160156 1.03125 -3.578125 1.03125 -2.765625 C 1.03125 -1.984375 1.125 -1.410156 1.3125 -1.046875 C 1.507812 -0.679688 1.816406 -0.5 2.234375 -0.5 C 2.648438 -0.5 2.953125 -0.679688 3.140625 -1.046875 C 3.335938 -1.421875 3.4375 -1.992188 3.4375 -2.765625 Z M 3.4375 -2.765625 "/></g></g></g><g fill="#664147" fill-opacity="1"><g transform="translate(248.430652, 556.422765)"><g><path d="M 4.125 -1.8125 C 4.125 -1.226562 3.960938 -0.765625 3.640625 -0.421875 C 3.328125 -0.0859375 2.890625 0.078125 2.328125 0.078125 C 1.710938 0.078125 1.238281 -0.148438 0.90625 -0.609375 C 0.570312 -1.078125 0.40625 -1.753906 0.40625 -2.640625 C 0.40625 -3.597656 0.578125 -4.332031 0.921875 -4.84375 C 1.265625 -5.363281 1.753906 -5.625 2.390625 -5.625 C 3.222656 -5.625 3.75 -5.242188 3.96875 -4.484375 L 3.296875 -4.375 C 3.148438 -4.820312 2.84375 -5.046875 2.375 -5.046875 C 1.976562 -5.046875 1.664062 -4.859375 1.4375 -4.484375 C 1.21875 -4.109375 1.109375 -3.5625 1.109375 -2.84375 C 1.234375 -3.082031 1.410156 -3.265625 1.640625 -3.390625 C 1.878906 -3.515625 2.148438 -3.578125 2.453125 -3.578125 C 2.960938 -3.578125 3.367188 -3.414062 3.671875 -3.09375 C 3.972656 -2.78125 4.125 -2.351562 4.125 -1.8125 Z M 3.40625 -1.78125 C 3.40625 -2.175781 3.304688 -2.484375 3.109375 -2.703125 C 2.910156 -2.921875 2.632812 -3.03125 2.28125 -3.03125 C 1.957031 -3.03125 1.691406 -2.929688 1.484375 -2.734375 C 1.285156 -2.546875 1.1875 -2.285156 1.1875 -1.953125 C 1.1875 -1.523438 1.289062 -1.171875 1.5 -0.890625 C 1.707031 -0.617188 1.976562 -0.484375 2.3125 -0.484375 C 2.65625 -0.484375 2.921875 -0.597656 3.109375 -0.828125 C 3.304688 -1.054688 3.40625 -1.375 3.40625 -1.78125 Z M 3.40625 -1.78125 "/></g></g></g><g fill="#664147" fill-opacity="1"><g transform="translate(294.07739, 556.422765)"><g><path d="M 0.40625 0 L 0.40625 -0.5 C 0.539062 -0.800781 0.703125 -1.066406 0.890625 -1.296875 C 1.085938 -1.535156 1.289062 -1.75 1.5 -1.9375 C 1.707031 -2.132812 1.914062 -2.3125 2.125 -2.46875 C 2.332031 -2.632812 2.519531 -2.796875 2.6875 -2.953125 C 2.863281 -3.117188 3 -3.289062 3.09375 -3.46875 C 3.195312 -3.644531 3.25 -3.847656 3.25 -4.078125 C 3.25 -4.378906 3.160156 -4.613281 2.984375 -4.78125 C 2.804688 -4.945312 2.5625 -5.03125 2.25 -5.03125 C 1.945312 -5.03125 1.695312 -4.945312 1.5 -4.78125 C 1.300781 -4.625 1.1875 -4.398438 1.15625 -4.109375 L 0.4375 -4.171875 C 0.488281 -4.609375 0.675781 -4.957031 1 -5.21875 C 1.320312 -5.488281 1.738281 -5.625 2.25 -5.625 C 2.800781 -5.625 3.226562 -5.488281 3.53125 -5.21875 C 3.832031 -4.957031 3.984375 -4.585938 3.984375 -4.109375 C 3.984375 -3.890625 3.929688 -3.671875 3.828125 -3.453125 C 3.734375 -3.242188 3.585938 -3.03125 3.390625 -2.8125 C 3.203125 -2.601562 2.832031 -2.28125 2.28125 -1.84375 C 1.976562 -1.59375 1.738281 -1.367188 1.5625 -1.171875 C 1.382812 -0.972656 1.257812 -0.78125 1.1875 -0.59375 L 4.078125 -0.59375 L 4.078125 0 Z M 0.40625 0 "/></g></g></g><g fill="#664147" fill-opacity="1"><g transform="translate(298.548333, 556.422765)"><g><path d="M 4.15625 -2.765625 C 4.15625 -1.847656 3.992188 -1.144531 3.671875 -0.65625 C 3.347656 -0.164062 2.867188 0.078125 2.234375 0.078125 C 1.585938 0.078125 1.101562 -0.160156 0.78125 -0.640625 C 0.46875 -1.128906 0.3125 -1.835938 0.3125 -2.765625 C 0.3125 -3.722656 0.46875 -4.4375 0.78125 -4.90625 C 1.09375 -5.382812 1.582031 -5.625 2.25 -5.625 C 2.90625 -5.625 3.382812 -5.382812 3.6875 -4.90625 C 4 -4.425781 4.15625 -3.710938 4.15625 -2.765625 Z M 3.4375 -2.765625 C 3.4375 -3.566406 3.34375 -4.144531 3.15625 -4.5 C 2.976562 -4.863281 2.675781 -5.046875 2.25 -5.046875 C 1.8125 -5.046875 1.5 -4.867188 1.3125 -4.515625 C 1.125 -4.160156 1.03125 -3.578125 1.03125 -2.765625 C 1.03125 -1.984375 1.125 -1.410156 1.3125 -1.046875 C 1.507812 -0.679688 1.816406 -0.5 2.234375 -0.5 C 2.648438 -0.5 2.953125 -0.679688 3.140625 -1.046875 C 3.335938 -1.421875 3.4375 -1.992188 3.4375 -2.765625 Z M 3.4375 -2.765625 "/></g></g></g><g fill="#664147" fill-opacity="1"><g transform="translate(303.019276, 556.422765)"><g><path d="M 4.15625 -2.765625 C 4.15625 -1.847656 3.992188 -1.144531 3.671875 -0.65625 C 3.347656 -0.164062 2.867188 0.078125 2.234375 0.078125 C 1.585938 0.078125 1.101562 -0.160156 0.78125 -0.640625 C 0.46875 -1.128906 0.3125 -1.835938 0.3125 -2.765625 C 0.3125 -3.722656 0.46875 -4.4375 0.78125 -4.90625 C 1.09375 -5.382812 1.582031 -5.625 2.25 -5.625 C 2.90625 -5.625 3.382812 -5.382812 3.6875 -4.90625 C 4 -4.425781 4.15625 -3.710938 4.15625 -2.765625 Z M 3.4375 -2.765625 C 3.4375 -3.566406 3.34375 -4.144531 3.15625 -4.5 C 2.976562 -4.863281 2.675781 -5.046875 2.25 -5.046875 C 1.8125 -5.046875 1.5 -4.867188 1.3125 -4.515625 C 1.125 -4.160156 1.03125 -3.578125 1.03125 -2.765625 C 1.03125 -1.984375 1.125 -1.410156 1.3125 -1.046875 C 1.507812 -0.679688 1.816406 -0.5 2.234375 -0.5 C 2.648438 -0.5 2.953125 -0.679688 3.140625 -1.046875 C 3.335938 -1.421875 3.4375 -1.992188 3.4375 -2.765625 Z M 3.4375 -2.765625 "/></g></g></g><g fill="#664147" fill-opacity="1"><g transform="translate(307.490219, 556.422765)"><g><path d="M 4.125 -1.546875 C 4.125 -1.035156 3.960938 -0.632812 3.640625 -0.34375 C 3.316406 -0.0625 2.847656 0.078125 2.234375 0.078125 C 1.648438 0.078125 1.1875 -0.0625 0.84375 -0.34375 C 0.507812 -0.625 0.34375 -1.019531 0.34375 -1.53125 C 0.34375 -1.894531 0.445312 -2.195312 0.65625 -2.4375 C 0.863281 -2.6875 1.128906 -2.835938 1.453125 -2.890625 L 1.453125 -2.90625 C 1.148438 -2.976562 0.910156 -3.128906 0.734375 -3.359375 C 0.566406 -3.597656 0.484375 -3.878906 0.484375 -4.203125 C 0.484375 -4.617188 0.640625 -4.957031 0.953125 -5.21875 C 1.265625 -5.488281 1.6875 -5.625 2.21875 -5.625 C 2.769531 -5.625 3.203125 -5.492188 3.515625 -5.234375 C 3.828125 -4.972656 3.984375 -4.625 3.984375 -4.1875 C 3.984375 -3.875 3.894531 -3.597656 3.71875 -3.359375 C 3.550781 -3.128906 3.3125 -2.984375 3 -2.921875 L 3 -2.90625 C 3.351562 -2.84375 3.628906 -2.691406 3.828125 -2.453125 C 4.023438 -2.210938 4.125 -1.910156 4.125 -1.546875 Z M 3.25 -4.15625 C 3.25 -4.78125 2.90625 -5.09375 2.21875 -5.09375 C 1.882812 -5.09375 1.628906 -5.015625 1.453125 -4.859375 C 1.285156 -4.703125 1.203125 -4.46875 1.203125 -4.15625 C 1.203125 -3.832031 1.289062 -3.585938 1.46875 -3.421875 C 1.644531 -3.253906 1.898438 -3.171875 2.234375 -3.171875 C 2.566406 -3.171875 2.816406 -3.25 2.984375 -3.40625 C 3.160156 -3.5625 3.25 -3.8125 3.25 -4.15625 Z M 3.390625 -1.609375 C 3.390625 -1.953125 3.285156 -2.207031 3.078125 -2.375 C 2.878906 -2.550781 2.59375 -2.640625 2.21875 -2.640625 C 1.863281 -2.640625 1.582031 -2.546875 1.375 -2.359375 C 1.175781 -2.179688 1.078125 -1.925781 1.078125 -1.59375 C 1.078125 -0.832031 1.46875 -0.453125 2.25 -0.453125 C 2.632812 -0.453125 2.921875 -0.539062 3.109375 -0.71875 C 3.296875 -0.90625 3.390625 -1.203125 3.390625 -1.609375 Z M 3.390625 -1.609375 "/></g></g></g><g fill="#664147" fill-opacity="1"><g transform="translate(353.136988, 556.422765)"><g><path d="M 0.40625 0 L 0.40625 -0.5 C 0.539062 -0.800781 0.703125 -1.066406 0.890625 -1.296875 C 1.085938 -1.535156 1.289062 -1.75 1.5 -1.9375 C 1.707031 -2.132812 1.914062 -2.3125 2.125 -2.46875 C 2.332031 -2.632812 2.519531 -2.796875 2.6875 -2.953125 C 2.863281 -3.117188 3 -3.289062 3.09375 -3.46875 C 3.195312 -3.644531 3.25 -3.847656 3.25 -4.078125 C 3.25 -4.378906 3.160156 -4.613281 2.984375 -4.78125 C 2.804688 -4.945312 2.5625 -5.03125 2.25 -5.03125 C 1.945312 -5.03125 1.695312 -4.945312 1.5 -4.78125 C 1.300781 -4.625 1.1875 -4.398438 1.15625 -4.109375 L 0.4375 -4.171875 C 0.488281 -4.609375 0.675781 -4.957031 1 -5.21875 C 1.320312 -5.488281 1.738281 -5.625 2.25 -5.625 C 2.800781 -5.625 3.226562 -5.488281 3.53125 -5.21875 C 3.832031 -4.957031 3.984375 -4.585938 3.984375 -4.109375 C 3.984375 -3.890625 3.929688 -3.671875 3.828125 -3.453125 C 3.734375 -3.242188 3.585938 -3.03125 3.390625 -2.8125 C 3.203125 -2.601562 2.832031 -2.28125 2.28125 -1.84375 C 1.976562 -1.59375 1.738281 -1.367188 1.5625 -1.171875 C 1.382812 -0.972656 1.257812 -0.78125 1.1875 -0.59375 L 4.078125 -0.59375 L 4.078125 0 Z M 0.40625 0 "/></g></g></g><g fill="#664147" fill-opacity="1"><g transform="translate(357.607931, 556.422765)"><g><path d="M 4.15625 -2.765625 C 4.15625 -1.847656 3.992188 -1.144531 3.671875 -0.65625 C 3.347656 -0.164062 2.867188 0.078125 2.234375 0.078125 C 1.585938 0.078125 1.101562 -0.160156 0.78125 -0.640625 C 0.46875 -1.128906 0.3125 -1.835938 0.3125 -2.765625 C 0.3125 -3.722656 0.46875 -4.4375 0.78125 -4.90625 C 1.09375 -5.382812 1.582031 -5.625 2.25 -5.625 C 2.90625 -5.625 3.382812 -5.382812 3.6875 -4.90625 C 4 -4.425781 4.15625 -3.710938 4.15625 -2.765625 Z M 3.4375 -2.765625 C 3.4375 -3.566406 3.34375 -4.144531 3.15625 -4.5 C 2.976562 -4.863281 2.675781 -5.046875 2.25 -5.046875 C 1.8125 -5.046875 1.5 -4.867188 1.3125 -4.515625 C 1.125 -4.160156 1.03125 -3.578125 1.03125 -2.765625 C 1.03125 -1.984375 1.125 -1.410156 1.3125 -1.046875 C 1.507812 -0.679688 1.816406 -0.5 2.234375 -0.5 C 2.648438 -0.5 2.953125 -0.679688 3.140625 -1.046875 C 3.335938 -1.421875 3.4375 -1.992188 3.4375 -2.765625 Z M 3.4375 -2.765625 "/></g></g></g><g fill="#664147" fill-opacity="1"><g transform="translate(362.078875, 556.422765)"><g><path d="M 0.609375 0 L 0.609375 -0.59375 L 2.03125 -0.59375 L 2.03125 -4.859375 L 0.78125 -3.96875 L 0.78125 -4.640625 L 2.078125 -5.53125 L 2.734375 -5.53125 L 2.734375 -0.59375 L 4.078125 -0.59375 L 4.078125 0 Z M 0.609375 0 "/></g></g></g><g fill="#664147" fill-opacity="1"><g transform="translate(366.549818, 556.422765)"><g><path d="M 4.15625 -2.765625 C 4.15625 -1.847656 3.992188 -1.144531 3.671875 -0.65625 C 3.347656 -0.164062 2.867188 0.078125 2.234375 0.078125 C 1.585938 0.078125 1.101562 -0.160156 0.78125 -0.640625 C 0.46875 -1.128906 0.3125 -1.835938 0.3125 -2.765625 C 0.3125 -3.722656 0.46875 -4.4375 0.78125 -4.90625 C 1.09375 -5.382812 1.582031 -5.625 2.25 -5.625 C 2.90625 -5.625 3.382812 -5.382812 3.6875 -4.90625 C 4 -4.425781 4.15625 -3.710938 4.15625 -2.765625 Z M 3.4375 -2.765625 C 3.4375 -3.566406 3.34375 -4.144531 3.15625 -4.5 C 2.976562 -4.863281 2.675781 -5.046875 2.25 -5.046875 C 1.8125 -5.046875 1.5 -4.867188 1.3125 -4.515625 C 1.125 -4.160156 1.03125 -3.578125 1.03125 -2.765625 C 1.03125 -1.984375 1.125 -1.410156 1.3125 -1.046875 C 1.507812 -0.679688 1.816406 -0.5 2.234375 -0.5 C 2.648438 -0.5 2.953125 -0.679688 3.140625 -1.046875 C 3.335938 -1.421875 3.4375 -1.992188 3.4375 -2.765625 Z M 3.4375 -2.765625 "/></g></g></g><g fill="#664147" fill-opacity="1"><g transform="translate(412.196582, 556.422765)"><g><path d="M 0.40625 0 L 0.40625 -0.5 C 0.539062 -0.800781 0.703125 -1.066406 0.890625 -1.296875 C 1.085938 -1.535156 1.289062 -1.75 1.5 -1.9375 C 1.707031 -2.132812 1.914062 -2.3125 2.125 -2.46875 C 2.332031 -2.632812 2.519531 -2.796875 2.6875 -2.953125 C 2.863281 -3.117188 3 -3.289062 3.09375 -3.46875 C 3.195312 -3.644531 3.25 -3.847656 3.25 -4.078125 C 3.25 -4.378906 3.160156 -4.613281 2.984375 -4.78125 C 2.804688 -4.945312 2.5625 -5.03125 2.25 -5.03125 C 1.945312 -5.03125 1.695312 -4.945312 1.5 -4.78125 C 1.300781 -4.625 1.1875 -4.398438 1.15625 -4.109375 L 0.4375 -4.171875 C 0.488281 -4.609375 0.675781 -4.957031 1 -5.21875 C 1.320312 -5.488281 1.738281 -5.625 2.25 -5.625 C 2.800781 -5.625 3.226562 -5.488281 3.53125 -5.21875 C 3.832031 -4.957031 3.984375 -4.585938 3.984375 -4.109375 C 3.984375 -3.890625 3.929688 -3.671875 3.828125 -3.453125 C 3.734375 -3.242188 3.585938 -3.03125 3.390625 -2.8125 C 3.203125 -2.601562 2.832031 -2.28125 2.28125 -1.84375 C 1.976562 -1.59375 1.738281 -1.367188 1.5625 -1.171875 C 1.382812 -0.972656 1.257812 -0.78125 1.1875 -0.59375 L 4.078125 -0.59375 L 4.078125 0 Z M 0.40625 0 "/></g></g></g><g fill="#664147" fill-opacity="1"><g transform="translate(416.667525, 556.422765)"><g><path d="M 4.15625 -2.765625 C 4.15625 -1.847656 3.992188 -1.144531 3.671875 -0.65625 C 3.347656 -0.164062 2.867188 0.078125 2.234375 0.078125 C 1.585938 0.078125 1.101562 -0.160156 0.78125 -0.640625 C 0.46875 -1.128906 0.3125 -1.835938 0.3125 -2.765625 C 0.3125 -3.722656 0.46875 -4.4375 0.78125 -4.90625 C 1.09375 -5.382812 1.582031 -5.625 2.25 -5.625 C 2.90625 -5.625 3.382812 -5.382812 3.6875 -4.90625 C 4 -4.425781 4.15625 -3.710938 4.15625 -2.765625 Z M 3.4375 -2.765625 C 3.4375 -3.566406 3.34375 -4.144531 3.15625 -4.5 C 2.976562 -4.863281 2.675781 -5.046875 2.25 -5.046875 C 1.8125 -5.046875 1.5 -4.867188 1.3125 -4.515625 C 1.125 -4.160156 1.03125 -3.578125 1.03125 -2.765625 C 1.03125 -1.984375 1.125 -1.410156 1.3125 -1.046875 C 1.507812 -0.679688 1.816406 -0.5 2.234375 -0.5 C 2.648438 -0.5 2.953125 -0.679688 3.140625 -1.046875 C 3.335938 -1.421875 3.4375 -1.992188 3.4375 -2.765625 Z M 3.4375 -2.765625 "/></g></g></g><g fill="#664147" fill-opacity="1"><g transform="translate(421.138468, 556.422765)"><g><path d="M 0.609375 0 L 0.609375 -0.59375 L 2.03125 -0.59375 L 2.03125 -4.859375 L 0.78125 -3.96875 L 0.78125 -4.640625 L 2.078125 -5.53125 L 2.734375 -5.53125 L 2.734375 -0.59375 L 4.078125 -0.59375 L 4.078125 0 Z M 0.609375 0 "/></g></g></g><g fill="#664147" fill-opacity="1"><g transform="translate(425.609411, 556.422765)"><g><path d="M 0.40625 0 L 0.40625 -0.5 C 0.539062 -0.800781 0.703125 -1.066406 0.890625 -1.296875 C 1.085938 -1.535156 1.289062 -1.75 1.5 -1.9375 C 1.707031 -2.132812 1.914062 -2.3125 2.125 -2.46875 C 2.332031 -2.632812 2.519531 -2.796875 2.6875 -2.953125 C 2.863281 -3.117188 3 -3.289062 3.09375 -3.46875 C 3.195312 -3.644531 3.25 -3.847656 3.25 -4.078125 C 3.25 -4.378906 3.160156 -4.613281 2.984375 -4.78125 C 2.804688 -4.945312 2.5625 -5.03125 2.25 -5.03125 C 1.945312 -5.03125 1.695312 -4.945312 1.5 -4.78125 C 1.300781 -4.625 1.1875 -4.398438 1.15625 -4.109375 L 0.4375 -4.171875 C 0.488281 -4.609375 0.675781 -4.957031 1 -5.21875 C 1.320312 -5.488281 1.738281 -5.625 2.25 -5.625 C 2.800781 -5.625 3.226562 -5.488281 3.53125 -5.21875 C 3.832031 -4.957031 3.984375 -4.585938 3.984375 -4.109375 C 3.984375 -3.890625 3.929688 -3.671875 3.828125 -3.453125 C 3.734375 -3.242188 3.585938 -3.03125 3.390625 -2.8125 C 3.203125 -2.601562 2.832031 -2.28125 2.28125 -1.84375 C 1.976562 -1.59375 1.738281 -1.367188 1.5625 -1.171875 C 1.382812 -0.972656 1.257812 -0.78125 1.1875 -0.59375 L 4.078125 -0.59375 L 4.078125 0 Z M 0.40625 0 "/></g></g></g><g fill="#664147" fill-opacity="1"><g transform="translate(471.256163, 556.422765)"><g><path d="M 0.40625 0 L 0.40625 -0.5 C 0.539062 -0.800781 0.703125 -1.066406 0.890625 -1.296875 C 1.085938 -1.535156 1.289062 -1.75 1.5 -1.9375 C 1.707031 -2.132812 1.914062 -2.3125 2.125 -2.46875 C 2.332031 -2.632812 2.519531 -2.796875 2.6875 -2.953125 C 2.863281 -3.117188 3 -3.289062 3.09375 -3.46875 C 3.195312 -3.644531 3.25 -3.847656 3.25 -4.078125 C 3.25 -4.378906 3.160156 -4.613281 2.984375 -4.78125 C 2.804688 -4.945312 2.5625 -5.03125 2.25 -5.03125 C 1.945312 -5.03125 1.695312 -4.945312 1.5 -4.78125 C 1.300781 -4.625 1.1875 -4.398438 1.15625 -4.109375 L 0.4375 -4.171875 C 0.488281 -4.609375 0.675781 -4.957031 1 -5.21875 C 1.320312 -5.488281 1.738281 -5.625 2.25 -5.625 C 2.800781 -5.625 3.226562 -5.488281 3.53125 -5.21875 C 3.832031 -4.957031 3.984375 -4.585938 3.984375 -4.109375 C 3.984375 -3.890625 3.929688 -3.671875 3.828125 -3.453125 C 3.734375 -3.242188 3.585938 -3.03125 3.390625 -2.8125 C 3.203125 -2.601562 2.832031 -2.28125 2.28125 -1.84375 C 1.976562 -1.59375 1.738281 -1.367188 1.5625 -1.171875 C 1.382812 -0.972656 1.257812 -0.78125 1.1875 -0.59375 L 4.078125 -0.59375 L 4.078125 0 Z M 0.40625 0 "/></g></g></g><g fill="#664147" fill-opacity="1"><g transform="translate(475.727106, 556.422765)"><g><path d="M 4.15625 -2.765625 C 4.15625 -1.847656 3.992188 -1.144531 3.671875 -0.65625 C 3.347656 -0.164062 2.867188 0.078125 2.234375 0.078125 C 1.585938 0.078125 1.101562 -0.160156 0.78125 -0.640625 C 0.46875 -1.128906 0.3125 -1.835938 0.3125 -2.765625 C 0.3125 -3.722656 0.46875 -4.4375 0.78125 -4.90625 C 1.09375 -5.382812 1.582031 -5.625 2.25 -5.625 C 2.90625 -5.625 3.382812 -5.382812 3.6875 -4.90625 C 4 -4.425781 4.15625 -3.710938 4.15625 -2.765625 Z M 3.4375 -2.765625 C 3.4375 -3.566406 3.34375 -4.144531 3.15625 -4.5 C 2.976562 -4.863281 2.675781 -5.046875 2.25 -5.046875 C 1.8125 -5.046875 1.5 -4.867188 1.3125 -4.515625 C 1.125 -4.160156 1.03125 -3.578125 1.03125 -2.765625 C 1.03125 -1.984375 1.125 -1.410156 1.3125 -1.046875 C 1.507812 -0.679688 1.816406 -0.5 2.234375 -0.5 C 2.648438 -0.5 2.953125 -0.679688 3.140625 -1.046875 C 3.335938 -1.421875 3.4375 -1.992188 3.4375 -2.765625 Z M 3.4375 -2.765625 "/></g></g></g><g fill="#664147" fill-opacity="1"><g transform="translate(480.19805, 556.422765)"><g><path d="M 0.609375 0 L 0.609375 -0.59375 L 2.03125 -0.59375 L 2.03125 -4.859375 L 0.78125 -3.96875 L 0.78125 -4.640625 L 2.078125 -5.53125 L 2.734375 -5.53125 L 2.734375 -0.59375 L 4.078125 -0.59375 L 4.078125 0 Z M 0.609375 0 "/></g></g></g><g fill="#664147" fill-opacity="1"><g transform="translate(484.668993, 556.422765)"><g><path d="M 3.46875 -1.25 L 3.46875 0 L 2.796875 0 L 2.796875 -1.25 L 0.1875 -1.25 L 0.1875 -1.796875 L 2.71875 -5.53125 L 3.46875 -5.53125 L 3.46875 -1.8125 L 4.234375 -1.8125 L 4.234375 -1.25 Z M 2.796875 -4.734375 C 2.785156 -4.722656 2.742188 -4.65625 2.671875 -4.53125 C 2.609375 -4.40625 2.5625 -4.316406 2.53125 -4.265625 L 0.90625 -1.890625 L 0.84375 -1.8125 L 2.796875 -1.8125 Z M 2.796875 -4.734375 "/></g></g></g><g fill="#664147" fill-opacity="1"><g transform="translate(530.315721, 556.422765)"><g><path d="M 0.40625 0 L 0.40625 -0.5 C 0.539062 -0.800781 0.703125 -1.066406 0.890625 -1.296875 C 1.085938 -1.535156 1.289062 -1.75 1.5 -1.9375 C 1.707031 -2.132812 1.914062 -2.3125 2.125 -2.46875 C 2.332031 -2.632812 2.519531 -2.796875 2.6875 -2.953125 C 2.863281 -3.117188 3 -3.289062 3.09375 -3.46875 C 3.195312 -3.644531 3.25 -3.847656 3.25 -4.078125 C 3.25 -4.378906 3.160156 -4.613281 2.984375 -4.78125 C 2.804688 -4.945312 2.5625 -5.03125 2.25 -5.03125 C 1.945312 -5.03125 1.695312 -4.945312 1.5 -4.78125 C 1.300781 -4.625 1.1875 -4.398438 1.15625 -4.109375 L 0.4375 -4.171875 C 0.488281 -4.609375 0.675781 -4.957031 1 -5.21875 C 1.320312 -5.488281 1.738281 -5.625 2.25 -5.625 C 2.800781 -5.625 3.226562 -5.488281 3.53125 -5.21875 C 3.832031 -4.957031 3.984375 -4.585938 3.984375 -4.109375 C 3.984375 -3.890625 3.929688 -3.671875 3.828125 -3.453125 C 3.734375 -3.242188 3.585938 -3.03125 3.390625 -2.8125 C 3.203125 -2.601562 2.832031 -2.28125 2.28125 -1.84375 C 1.976562 -1.59375 1.738281 -1.367188 1.5625 -1.171875 C 1.382812 -0.972656 1.257812 -0.78125 1.1875 -0.59375 L 4.078125 -0.59375 L 4.078125 0 Z M 0.40625 0 "/></g></g></g><g fill="#664147" fill-opacity="1"><g transform="translate(534.786664, 556.422765)"><g><path d="M 4.15625 -2.765625 C 4.15625 -1.847656 3.992188 -1.144531 3.671875 -0.65625 C 3.347656 -0.164062 2.867188 0.078125 2.234375 0.078125 C 1.585938 0.078125 1.101562 -0.160156 0.78125 -0.640625 C 0.46875 -1.128906 0.3125 -1.835938 0.3125 -2.765625 C 0.3125 -3.722656 0.46875 -4.4375 0.78125 -4.90625 C 1.09375 -5.382812 1.582031 -5.625 2.25 -5.625 C 2.90625 -5.625 3.382812 -5.382812 3.6875 -4.90625 C 4 -4.425781 4.15625 -3.710938 4.15625 -2.765625 Z M 3.4375 -2.765625 C 3.4375 -3.566406 3.34375 -4.144531 3.15625 -4.5 C 2.976562 -4.863281 2.675781 -5.046875 2.25 -5.046875 C 1.8125 -5.046875 1.5 -4.867188 1.3125 -4.515625 C 1.125 -4.160156 1.03125 -3.578125 1.03125 -2.765625 C 1.03125 -1.984375 1.125 -1.410156 1.3125 -1.046875 C 1.507812 -0.679688 1.816406 -0.5 2.234375 -0.5 C 2.648438 -0.5 2.953125 -0.679688 3.140625 -1.046875 C 3.335938 -1.421875 3.4375 -1.992188 3.4375 -2.765625 Z M 3.4375 -2.765625 "/></g></g></g><g fill="#664147" fill-opacity="1"><g transform="translate(539.257607, 556.422765)"><g><path d="M 0.609375 0 L 0.609375 -0.59375 L 2.03125 -0.59375 L 2.03125 -4.859375 L 0.78125 -3.96875 L 0.78125 -4.640625 L 2.078125 -5.53125 L 2.734375 -5.53125 L 2.734375 -0.59375 L 4.078125 -0.59375 L 4.078125 0 Z M 0.609375 0 "/></g></g></g><g fill="#664147" fill-opacity="1"><g transform="translate(543.72855, 556.422765)"><g><path d="M 4.125 -1.8125 C 4.125 -1.226562 3.960938 -0.765625 3.640625 -0.421875 C 3.328125 -0.0859375 2.890625 0.078125 2.328125 0.078125 C 1.710938 0.078125 1.238281 -0.148438 0.90625 -0.609375 C 0.570312 -1.078125 0.40625 -1.753906 0.40625 -2.640625 C 0.40625 -3.597656 0.578125 -4.332031 0.921875 -4.84375 C 1.265625 -5.363281 1.753906 -5.625 2.390625 -5.625 C 3.222656 -5.625 3.75 -5.242188 3.96875 -4.484375 L 3.296875 -4.375 C 3.148438 -4.820312 2.84375 -5.046875 2.375 -5.046875 C 1.976562 -5.046875 1.664062 -4.859375 1.4375 -4.484375 C 1.21875 -4.109375 1.109375 -3.5625 1.109375 -2.84375 C 1.234375 -3.082031 1.410156 -3.265625 1.640625 -3.390625 C 1.878906 -3.515625 2.148438 -3.578125 2.453125 -3.578125 C 2.960938 -3.578125 3.367188 -3.414062 3.671875 -3.09375 C 3.972656 -2.78125 4.125 -2.351562 4.125 -1.8125 Z M 3.40625 -1.78125 C 3.40625 -2.175781 3.304688 -2.484375 3.109375 -2.703125 C 2.910156 -2.921875 2.632812 -3.03125 2.28125 -3.03125 C 1.957031 -3.03125 1.691406 -2.929688 1.484375 -2.734375 C 1.285156 -2.546875 1.1875 -2.285156 1.1875 -1.953125 C 1.1875 -1.523438 1.289062 -1.171875 1.5 -0.890625 C 1.707031 -0.617188 1.976562 -0.484375 2.3125 -0.484375 C 2.65625 -0.484375 2.921875 -0.597656 3.109375 -0.828125 C 3.304688 -1.054688 3.40625 -1.375 3.40625 -1.78125 Z M 3.40625 -1.78125 "/></g></g></g><g fill="#664147" fill-opacity="1"><g transform="translate(589.37535, 556.422765)"><g><path d="M 0.40625 0 L 0.40625 -0.5 C 0.539062 -0.800781 0.703125 -1.066406 0.890625 -1.296875 C 1.085938 -1.535156 1.289062 -1.75 1.5 -1.9375 C 1.707031 -2.132812 1.914062 -2.3125 2.125 -2.46875 C 2.332031 -2.632812 2.519531 -2.796875 2.6875 -2.953125 C 2.863281 -3.117188 3 -3.289062 3.09375 -3.46875 C 3.195312 -3.644531 3.25 -3.847656 3.25 -4.078125 C 3.25 -4.378906 3.160156 -4.613281 2.984375 -4.78125 C 2.804688 -4.945312 2.5625 -5.03125 2.25 -5.03125 C 1.945312 -5.03125 1.695312 -4.945312 1.5 -4.78125 C 1.300781 -4.625 1.1875 -4.398438 1.15625 -4.109375 L 0.4375 -4.171875 C 0.488281 -4.609375 0.675781 -4.957031 1 -5.21875 C 1.320312 -5.488281 1.738281 -5.625 2.25 -5.625 C 2.800781 -5.625 3.226562 -5.488281 3.53125 -5.21875 C 3.832031 -4.957031 3.984375 -4.585938 3.984375 -4.109375 C 3.984375 -3.890625 3.929688 -3.671875 3.828125 -3.453125 C 3.734375 -3.242188 3.585938 -3.03125 3.390625 -2.8125 C 3.203125 -2.601562 2.832031 -2.28125 2.28125 -1.84375 C 1.976562 -1.59375 1.738281 -1.367188 1.5625 -1.171875 C 1.382812 -0.972656 1.257812 -0.78125 1.1875 -0.59375 L 4.078125 -0.59375 L 4.078125 0 Z M 0.40625 0 "/></g></g></g><g fill="#664147" fill-opacity="1"><g transform="translate(593.846293, 556.422765)"><g><path d="M 4.15625 -2.765625 C 4.15625 -1.847656 3.992188 -1.144531 3.671875 -0.65625 C 3.347656 -0.164062 2.867188 0.078125 2.234375 0.078125 C 1.585938 0.078125 1.101562 -0.160156 0.78125 -0.640625 C 0.46875 -1.128906 0.3125 -1.835938 0.3125 -2.765625 C 0.3125 -3.722656 0.46875 -4.4375 0.78125 -4.90625 C 1.09375 -5.382812 1.582031 -5.625 2.25 -5.625 C 2.90625 -5.625 3.382812 -5.382812 3.6875 -4.90625 C 4 -4.425781 4.15625 -3.710938 4.15625 -2.765625 Z M 3.4375 -2.765625 C 3.4375 -3.566406 3.34375 -4.144531 3.15625 -4.5 C 2.976562 -4.863281 2.675781 -5.046875 2.25 -5.046875 C 1.8125 -5.046875 1.5 -4.867188 1.3125 -4.515625 C 1.125 -4.160156 1.03125 -3.578125 1.03125 -2.765625 C 1.03125 -1.984375 1.125 -1.410156 1.3125 -1.046875 C 1.507812 -0.679688 1.816406 -0.5 2.234375 -0.5 C 2.648438 -0.5 2.953125 -0.679688 3.140625 -1.046875 C 3.335938 -1.421875 3.4375 -1.992188 3.4375 -2.765625 Z M 3.4375 -2.765625 "/></g></g></g><g fill="#664147" fill-opacity="1"><g transform="translate(598.317237, 556.422765)"><g><path d="M 0.609375 0 L 0.609375 -0.59375 L 2.03125 -0.59375 L 2.03125 -4.859375 L 0.78125 -3.96875 L 0.78125 -4.640625 L 2.078125 -5.53125 L 2.734375 -5.53125 L 2.734375 -0.59375 L 4.078125 -0.59375 L 4.078125 0 Z M 0.609375 0 "/></g></g></g><g fill="#664147" fill-opacity="1"><g transform="translate(602.78818, 556.422765)"><g><path d="M 4.125 -1.546875 C 4.125 -1.035156 3.960938 -0.632812 3.640625 -0.34375 C 3.316406 -0.0625 2.847656 0.078125 2.234375 0.078125 C 1.648438 0.078125 1.1875 -0.0625 0.84375 -0.34375 C 0.507812 -0.625 0.34375 -1.019531 0.34375 -1.53125 C 0.34375 -1.894531 0.445312 -2.195312 0.65625 -2.4375 C 0.863281 -2.6875 1.128906 -2.835938 1.453125 -2.890625 L 1.453125 -2.90625 C 1.148438 -2.976562 0.910156 -3.128906 0.734375 -3.359375 C 0.566406 -3.597656 0.484375 -3.878906 0.484375 -4.203125 C 0.484375 -4.617188 0.640625 -4.957031 0.953125 -5.21875 C 1.265625 -5.488281 1.6875 -5.625 2.21875 -5.625 C 2.769531 -5.625 3.203125 -5.492188 3.515625 -5.234375 C 3.828125 -4.972656 3.984375 -4.625 3.984375 -4.1875 C 3.984375 -3.875 3.894531 -3.597656 3.71875 -3.359375 C 3.550781 -3.128906 3.3125 -2.984375 3 -2.921875 L 3 -2.90625 C 3.351562 -2.84375 3.628906 -2.691406 3.828125 -2.453125 C 4.023438 -2.210938 4.125 -1.910156 4.125 -1.546875 Z M 3.25 -4.15625 C 3.25 -4.78125 2.90625 -5.09375 2.21875 -5.09375 C 1.882812 -5.09375 1.628906 -5.015625 1.453125 -4.859375 C 1.285156 -4.703125 1.203125 -4.46875 1.203125 -4.15625 C 1.203125 -3.832031 1.289062 -3.585938 1.46875 -3.421875 C 1.644531 -3.253906 1.898438 -3.171875 2.234375 -3.171875 C 2.566406 -3.171875 2.816406 -3.25 2.984375 -3.40625 C 3.160156 -3.5625 3.25 -3.8125 3.25 -4.15625 Z M 3.390625 -1.609375 C 3.390625 -1.953125 3.285156 -2.207031 3.078125 -2.375 C 2.878906 -2.550781 2.59375 -2.640625 2.21875 -2.640625 C 1.863281 -2.640625 1.582031 -2.546875 1.375 -2.359375 C 1.175781 -2.179688 1.078125 -1.925781 1.078125 -1.59375 C 1.078125 -0.832031 1.46875 -0.453125 2.25 -0.453125 C 2.632812 -0.453125 2.921875 -0.539062 3.109375 -0.71875 C 3.296875 -0.90625 3.390625 -1.203125 3.390625 -1.609375 Z M 3.390625 -1.609375 "/></g></g></g><g fill="#664147" fill-opacity="1"><g transform="translate(648.434908, 556.422765)"><g><path d="M 0.40625 0 L 0.40625 -0.5 C 0.539062 -0.800781 0.703125 -1.066406 0.890625 -1.296875 C 1.085938 -1.535156 1.289062 -1.75 1.5 -1.9375 C 1.707031 -2.132812 1.914062 -2.3125 2.125 -2.46875 C 2.332031 -2.632812 2.519531 -2.796875 2.6875 -2.953125 C 2.863281 -3.117188 3 -3.289062 3.09375 -3.46875 C 3.195312 -3.644531 3.25 -3.847656 3.25 -4.078125 C 3.25 -4.378906 3.160156 -4.613281 2.984375 -4.78125 C 2.804688 -4.945312 2.5625 -5.03125 2.25 -5.03125 C 1.945312 -5.03125 1.695312 -4.945312 1.5 -4.78125 C 1.300781 -4.625 1.1875 -4.398438 1.15625 -4.109375 L 0.4375 -4.171875 C 0.488281 -4.609375 0.675781 -4.957031 1 -5.21875 C 1.320312 -5.488281 1.738281 -5.625 2.25 -5.625 C 2.800781 -5.625 3.226562 -5.488281 3.53125 -5.21875 C 3.832031 -4.957031 3.984375 -4.585938 3.984375 -4.109375 C 3.984375 -3.890625 3.929688 -3.671875 3.828125 -3.453125 C 3.734375 -3.242188 3.585938 -3.03125 3.390625 -2.8125 C 3.203125 -2.601562 2.832031 -2.28125 2.28125 -1.84375 C 1.976562 -1.59375 1.738281 -1.367188 1.5625 -1.171875 C 1.382812 -0.972656 1.257812 -0.78125 1.1875 -0.59375 L 4.078125 -0.59375 L 4.078125 0 Z M 0.40625 0 "/></g></g></g><g fill="#664147" fill-opacity="1"><g transform="translate(652.905851, 556.422765)"><g><path d="M 4.15625 -2.765625 C 4.15625 -1.847656 3.992188 -1.144531 3.671875 -0.65625 C 3.347656 -0.164062 2.867188 0.078125 2.234375 0.078125 C 1.585938 0.078125 1.101562 -0.160156 0.78125 -0.640625 C 0.46875 -1.128906 0.3125 -1.835938 0.3125 -2.765625 C 0.3125 -3.722656 0.46875 -4.4375 0.78125 -4.90625 C 1.09375 -5.382812 1.582031 -5.625 2.25 -5.625 C 2.90625 -5.625 3.382812 -5.382812 3.6875 -4.90625 C 4 -4.425781 4.15625 -3.710938 4.15625 -2.765625 Z M 3.4375 -2.765625 C 3.4375 -3.566406 3.34375 -4.144531 3.15625 -4.5 C 2.976562 -4.863281 2.675781 -5.046875 2.25 -5.046875 C 1.8125 -5.046875 1.5 -4.867188 1.3125 -4.515625 C 1.125 -4.160156 1.03125 -3.578125 1.03125 -2.765625 C 1.03125 -1.984375 1.125 -1.410156 1.3125 -1.046875 C 1.507812 -0.679688 1.816406 -0.5 2.234375 -0.5 C 2.648438 -0.5 2.953125 -0.679688 3.140625 -1.046875 C 3.335938 -1.421875 3.4375 -1.992188 3.4375 -2.765625 Z M 3.4375 -2.765625 "/></g></g></g><g fill="#664147" fill-opacity="1"><g transform="translate(657.376794, 556.422765)"><g><path d="M 0.40625 0 L 0.40625 -0.5 C 0.539062 -0.800781 0.703125 -1.066406 0.890625 -1.296875 C 1.085938 -1.535156 1.289062 -1.75 1.5 -1.9375 C 1.707031 -2.132812 1.914062 -2.3125 2.125 -2.46875 C 2.332031 -2.632812 2.519531 -2.796875 2.6875 -2.953125 C 2.863281 -3.117188 3 -3.289062 3.09375 -3.46875 C 3.195312 -3.644531 3.25 -3.847656 3.25 -4.078125 C 3.25 -4.378906 3.160156 -4.613281 2.984375 -4.78125 C 2.804688 -4.945312 2.5625 -5.03125 2.25 -5.03125 C 1.945312 -5.03125 1.695312 -4.945312 1.5 -4.78125 C 1.300781 -4.625 1.1875 -4.398438 1.15625 -4.109375 L 0.4375 -4.171875 C 0.488281 -4.609375 0.675781 -4.957031 1 -5.21875 C 1.320312 -5.488281 1.738281 -5.625 2.25 -5.625 C 2.800781 -5.625 3.226562 -5.488281 3.53125 -5.21875 C 3.832031 -4.957031 3.984375 -4.585938 3.984375 -4.109375 C 3.984375 -3.890625 3.929688 -3.671875 3.828125 -3.453125 C 3.734375 -3.242188 3.585938 -3.03125 3.390625 -2.8125 C 3.203125 -2.601562 2.832031 -2.28125 2.28125 -1.84375 C 1.976562 -1.59375 1.738281 -1.367188 1.5625 -1.171875 C 1.382812 -0.972656 1.257812 -0.78125 1.1875 -0.59375 L 4.078125 -0.59375 L 4.078125 0 Z M 0.40625 0 "/></g></g></g><g fill="#664147" fill-opacity="1"><g transform="translate(661.847737, 556.422765)"><g><path d="M 4.15625 -2.765625 C 4.15625 -1.847656 3.992188 -1.144531 3.671875 -0.65625 C 3.347656 -0.164062 2.867188 0.078125 2.234375 0.078125 C 1.585938 0.078125 1.101562 -0.160156 0.78125 -0.640625 C 0.46875 -1.128906 0.3125 -1.835938 0.3125 -2.765625 C 0.3125 -3.722656 0.46875 -4.4375 0.78125 -4.90625 C 1.09375 -5.382812 1.582031 -5.625 2.25 -5.625 C 2.90625 -5.625 3.382812 -5.382812 3.6875 -4.90625 C 4 -4.425781 4.15625 -3.710938 4.15625 -2.765625 Z M 3.4375 -2.765625 C 3.4375 -3.566406 3.34375 -4.144531 3.15625 -4.5 C 2.976562 -4.863281 2.675781 -5.046875 2.25 -5.046875 C 1.8125 -5.046875 1.5 -4.867188 1.3125 -4.515625 C 1.125 -4.160156 1.03125 -3.578125 1.03125 -2.765625 C 1.03125 -1.984375 1.125 -1.410156 1.3125 -1.046875 C 1.507812 -0.679688 1.816406 -0.5 2.234375 -0.5 C 2.648438 -0.5 2.953125 -0.679688 3.140625 -1.046875 C 3.335938 -1.421875 3.4375 -1.992188 3.4375 -2.765625 Z M 3.4375 -2.765625 "/></g></g></g><g fill="#664147" fill-opacity="1"><g transform="translate(707.494489, 556.422765)"><g><path d="M 0.40625 0 L 0.40625 -0.5 C 0.539062 -0.800781 0.703125 -1.066406 0.890625 -1.296875 C 1.085938 -1.535156 1.289062 -1.75 1.5 -1.9375 C 1.707031 -2.132812 1.914062 -2.3125 2.125 -2.46875 C 2.332031 -2.632812 2.519531 -2.796875 2.6875 -2.953125 C 2.863281 -3.117188 3 -3.289062 3.09375 -3.46875 C 3.195312 -3.644531 3.25 -3.847656 3.25 -4.078125 C 3.25 -4.378906 3.160156 -4.613281 2.984375 -4.78125 C 2.804688 -4.945312 2.5625 -5.03125 2.25 -5.03125 C 1.945312 -5.03125 1.695312 -4.945312 1.5 -4.78125 C 1.300781 -4.625 1.1875 -4.398438 1.15625 -4.109375 L 0.4375 -4.171875 C 0.488281 -4.609375 0.675781 -4.957031 1 -5.21875 C 1.320312 -5.488281 1.738281 -5.625 2.25 -5.625 C 2.800781 -5.625 3.226562 -5.488281 3.53125 -5.21875 C 3.832031 -4.957031 3.984375 -4.585938 3.984375 -4.109375 C 3.984375 -3.890625 3.929688 -3.671875 3.828125 -3.453125 C 3.734375 -3.242188 3.585938 -3.03125 3.390625 -2.8125 C 3.203125 -2.601562 2.832031 -2.28125 2.28125 -1.84375 C 1.976562 -1.59375 1.738281 -1.367188 1.5625 -1.171875 C 1.382812 -0.972656 1.257812 -0.78125 1.1875 -0.59375 L 4.078125 -0.59375 L 4.078125 0 Z M 0.40625 0 "/></g></g></g><g fill="#664147" fill-opacity="1"><g transform="translate(711.965433, 556.422765)"><g><path d="M 4.15625 -2.765625 C 4.15625 -1.847656 3.992188 -1.144531 3.671875 -0.65625 C 3.347656 -0.164062 2.867188 0.078125 2.234375 0.078125 C 1.585938 0.078125 1.101562 -0.160156 0.78125 -0.640625 C 0.46875 -1.128906 0.3125 -1.835938 0.3125 -2.765625 C 0.3125 -3.722656 0.46875 -4.4375 0.78125 -4.90625 C 1.09375 -5.382812 1.582031 -5.625 2.25 -5.625 C 2.90625 -5.625 3.382812 -5.382812 3.6875 -4.90625 C 4 -4.425781 4.15625 -3.710938 4.15625 -2.765625 Z M 3.4375 -2.765625 C 3.4375 -3.566406 3.34375 -4.144531 3.15625 -4.5 C 2.976562 -4.863281 2.675781 -5.046875 2.25 -5.046875 C 1.8125 -5.046875 1.5 -4.867188 1.3125 -4.515625 C 1.125 -4.160156 1.03125 -3.578125 1.03125 -2.765625 C 1.03125 -1.984375 1.125 -1.410156 1.3125 -1.046875 C 1.507812 -0.679688 1.816406 -0.5 2.234375 -0.5 C 2.648438 -0.5 2.953125 -0.679688 3.140625 -1.046875 C 3.335938 -1.421875 3.4375 -1.992188 3.4375 -2.765625 Z M 3.4375 -2.765625 "/></g></g></g><g fill="#664147" fill-opacity="1"><g transform="translate(716.436376, 556.422765)"><g><path d="M 0.40625 0 L 0.40625 -0.5 C 0.539062 -0.800781 0.703125 -1.066406 0.890625 -1.296875 C 1.085938 -1.535156 1.289062 -1.75 1.5 -1.9375 C 1.707031 -2.132812 1.914062 -2.3125 2.125 -2.46875 C 2.332031 -2.632812 2.519531 -2.796875 2.6875 -2.953125 C 2.863281 -3.117188 3 -3.289062 3.09375 -3.46875 C 3.195312 -3.644531 3.25 -3.847656 3.25 -4.078125 C 3.25 -4.378906 3.160156 -4.613281 2.984375 -4.78125 C 2.804688 -4.945312 2.5625 -5.03125 2.25 -5.03125 C 1.945312 -5.03125 1.695312 -4.945312 1.5 -4.78125 C 1.300781 -4.625 1.1875 -4.398438 1.15625 -4.109375 L 0.4375 -4.171875 C 0.488281 -4.609375 0.675781 -4.957031 1 -5.21875 C 1.320312 -5.488281 1.738281 -5.625 2.25 -5.625 C 2.800781 -5.625 3.226562 -5.488281 3.53125 -5.21875 C 3.832031 -4.957031 3.984375 -4.585938 3.984375 -4.109375 C 3.984375 -3.890625 3.929688 -3.671875 3.828125 -3.453125 C 3.734375 -3.242188 3.585938 -3.03125 3.390625 -2.8125 C 3.203125 -2.601562 2.832031 -2.28125 2.28125 -1.84375 C 1.976562 -1.59375 1.738281 -1.367188 1.5625 -1.171875 C 1.382812 -0.972656 1.257812 -0.78125 1.1875 -0.59375 L 4.078125 -0.59375 L 4.078125 0 Z M 0.40625 0 "/></g></g></g><g fill="#664147" fill-opacity="1"><g transform="translate(720.907319, 556.422765)"><g><path d="M 0.40625 0 L 0.40625 -0.5 C 0.539062 -0.800781 0.703125 -1.066406 0.890625 -1.296875 C 1.085938 -1.535156 1.289062 -1.75 1.5 -1.9375 C 1.707031 -2.132812 1.914062 -2.3125 2.125 -2.46875 C 2.332031 -2.632812 2.519531 -2.796875 2.6875 -2.953125 C 2.863281 -3.117188 3 -3.289062 3.09375 -3.46875 C 3.195312 -3.644531 3.25 -3.847656 3.25 -4.078125 C 3.25 -4.378906 3.160156 -4.613281 2.984375 -4.78125 C 2.804688 -4.945312 2.5625 -5.03125 2.25 -5.03125 C 1.945312 -5.03125 1.695312 -4.945312 1.5 -4.78125 C 1.300781 -4.625 1.1875 -4.398438 1.15625 -4.109375 L 0.4375 -4.171875 C 0.488281 -4.609375 0.675781 -4.957031 1 -5.21875 C 1.320312 -5.488281 1.738281 -5.625 2.25 -5.625 C 2.800781 -5.625 3.226562 -5.488281 3.53125 -5.21875 C 3.832031 -4.957031 3.984375 -4.585938 3.984375 -4.109375 C 3.984375 -3.890625 3.929688 -3.671875 3.828125 -3.453125 C 3.734375 -3.242188 3.585938 -3.03125 3.390625 -2.8125 C 3.203125 -2.601562 2.832031 -2.28125 2.28125 -1.84375 C 1.976562 -1.59375 1.738281 -1.367188 1.5625 -1.171875 C 1.382812 -0.972656 1.257812 -0.78125 1.1875 -0.59375 L 4.078125 -0.59375 L 4.078125 0 Z M 0.40625 0 "/></g></g></g><g clip-path="url(#3a84efa3d9)"><g mask="url(#719d81a904)"><g transform="matrix(1, 0, 0, 1, 51, 49)"><g clip-path="url(#e098c2ea01)"><g clip-path="url(#91bc4aa6fe)"><path fill="#664147" d="M 0.175781 0.375 L 681.175781 0.375 L 681.175781 496.875 L 0.175781 496.875 Z M 0.175781 0.375 " fill-opacity="1" fill-rule="nonzero"/></g></g></g></g></g><g clip-path="url(#d9ea7c58a9)"><g mask="url(#2587c97249)"><g transform="matrix(1, 0, 0, 1, 51, 148)"><g clip-path="url(#958a77eda1)"><g clip-path="url(#5cb36ebe28)"><path fill="#664147" d="M 0.175781 -98.625 L 681.175781 -98.625 L 681.175781 397.875 L 0.175781 397.875 Z M 0.175781 -98.625 " fill-opacity="1" fill-rule="nonzero"/></g></g></g></g></g><g clip-path="url(#c3d120518c)"><g mask="url(#3d4010a4d1)"><g transform="matrix(1, 0, 0, 1, 51, 247)"><g clip-path="url(#dde65ff4d9)"><g clip-path="url(#1256ae7022)"><path fill="#664147" d="M 0.175781 -197.625 L 681.175781 -197.625 L 681.175781 298.875 L 0.175781 298.875 Z M 0.175781 -197.625 " fill-opacity="1" fill-rule="nonzero"/></g></g></g></g></g><g clip-path="url(#35aa1ce0c6)"><g mask="url(#1760ca3a78)"><g transform="matrix(1, 0, 0, 1, 51, 346)"><g clip-path="url(#ba9b0272b8)"><g clip-path="url(#0dfbae8cd4)"><path fill="#664147" d="M 0.175781 -296.625 L 681.175781 -296.625 L 681.175781 199.875 L 0.175781 199.875 Z M 0.175781 -296.625 " fill-opacity="1" fill-rule="nonzero"/></g></g></g></g></g><g clip-path="url(#a5eb868285)"><g mask="url(#8a25788cc0)"><g transform="matrix(1, 0, 0, 1, 51, 446)"><g clip-path="url(#660cb16855)"><g clip-path="url(#c2f5787250)"><path fill="#664147" d="M 0.175781 -396.625 L 681.175781 -396.625 L 681.175781 99.875 L 0.175781 99.875 Z M 0.175781 -396.625 " fill-opacity="1" fill-rule="nonzero"/></g></g></g></g></g><g clip-path="url(#b9d85964fa)"><g mask="url(#6e0e009b38)"><g transform="matrix(1, 0, 0, 1, 51, 545)"><g clip-path="url(#91d78e2a67)"><g clip-path="url(#f88697ca54)"><path fill="#664147" d="M 0.175781 -495.625 L 681.175781 -495.625 L 681.175781 0.875 L 0.175781 0.875 Z M 0.175781 -495.625 " fill-opacity="1" fill-rule="nonzero"/></g></g></g></g></g><g fill="#664147" fill-opacity="1"><g transform="translate(35.984405, 51.624071)"><g><path d="M 0.40625 0 L 0.40625 -0.5 C 0.539062 -0.800781 0.703125 -1.066406 0.890625 -1.296875 C 1.085938 -1.535156 1.289062 -1.75 1.5 -1.9375 C 1.707031 -2.132812 1.914062 -2.3125 2.125 -2.46875 C 2.332031 -2.632812 2.519531 -2.796875 2.6875 -2.953125 C 2.863281 -3.117188 3 -3.289062 3.09375 -3.46875 C 3.195312 -3.644531 3.25 -3.847656 3.25 -4.078125 C 3.25 -4.378906 3.160156 -4.613281 2.984375 -4.78125 C 2.804688 -4.945312 2.5625 -5.03125 2.25 -5.03125 C 1.945312 -5.03125 1.695312 -4.945312 1.5 -4.78125 C 1.300781 -4.625 1.1875 -4.398438 1.15625 -4.109375 L 0.4375 -4.171875 C 0.488281 -4.609375 0.675781 -4.957031 1 -5.21875 C 1.320312 -5.488281 1.738281 -5.625 2.25 -5.625 C 2.800781 -5.625 3.226562 -5.488281 3.53125 -5.21875 C 3.832031 -4.957031 3.984375 -4.585938 3.984375 -4.109375 C 3.984375 -3.890625 3.929688 -3.671875 3.828125 -3.453125 C 3.734375 -3.242188 3.585938 -3.03125 3.390625 -2.8125 C 3.203125 -2.601562 2.832031 -2.28125 2.28125 -1.84375 C 1.976562 -1.59375 1.738281 -1.367188 1.5625 -1.171875 C 1.382812 -0.972656 1.257812 -0.78125 1.1875 -0.59375 L 4.078125 -0.59375 L 4.078125 0 Z M 0.40625 0 "/></g></g></g><g fill="#664147" fill-opacity="1"><g transform="translate(40.455349, 51.624071)"><g><path d="M 4.140625 -1.796875 C 4.140625 -1.210938 3.960938 -0.753906 3.609375 -0.421875 C 3.265625 -0.0859375 2.785156 0.078125 2.171875 0.078125 C 1.660156 0.078125 1.242188 -0.03125 0.921875 -0.25 C 0.609375 -0.476562 0.410156 -0.804688 0.328125 -1.234375 L 1.03125 -1.3125 C 1.1875 -0.769531 1.570312 -0.5 2.1875 -0.5 C 2.570312 -0.5 2.867188 -0.613281 3.078125 -0.84375 C 3.296875 -1.070312 3.40625 -1.382812 3.40625 -1.78125 C 3.40625 -2.132812 3.296875 -2.414062 3.078125 -2.625 C 2.859375 -2.84375 2.566406 -2.953125 2.203125 -2.953125 C 2.015625 -2.953125 1.835938 -2.921875 1.671875 -2.859375 C 1.503906 -2.804688 1.335938 -2.707031 1.171875 -2.5625 L 0.484375 -2.5625 L 0.671875 -5.53125 L 3.8125 -5.53125 L 3.8125 -4.9375 L 1.3125 -4.9375 L 1.203125 -3.171875 C 1.515625 -3.410156 1.894531 -3.53125 2.34375 -3.53125 C 2.894531 -3.53125 3.332031 -3.367188 3.65625 -3.046875 C 3.976562 -2.734375 4.140625 -2.316406 4.140625 -1.796875 Z M 4.140625 -1.796875 "/></g></g></g><g fill="#664147" fill-opacity="1"><g transform="translate(44.925811, 51.624071)"><g/></g></g><g fill="#664147" fill-opacity="1"><g transform="translate(35.984405, 150.814804)"><g><path d="M 0.40625 0 L 0.40625 -0.5 C 0.539062 -0.800781 0.703125 -1.066406 0.890625 -1.296875 C 1.085938 -1.535156 1.289062 -1.75 1.5 -1.9375 C 1.707031 -2.132812 1.914062 -2.3125 2.125 -2.46875 C 2.332031 -2.632812 2.519531 -2.796875 2.6875 -2.953125 C 2.863281 -3.117188 3 -3.289062 3.09375 -3.46875 C 3.195312 -3.644531 3.25 -3.847656 3.25 -4.078125 C 3.25 -4.378906 3.160156 -4.613281 2.984375 -4.78125 C 2.804688 -4.945312 2.5625 -5.03125 2.25 -5.03125 C 1.945312 -5.03125 1.695312 -4.945312 1.5 -4.78125 C 1.300781 -4.625 1.1875 -4.398438 1.15625 -4.109375 L 0.4375 -4.171875 C 0.488281 -4.609375 0.675781 -4.957031 1 -5.21875 C 1.320312 -5.488281 1.738281 -5.625 2.25 -5.625 C 2.800781 -5.625 3.226562 -5.488281 3.53125 -5.21875 C 3.832031 -4.957031 3.984375 -4.585938 3.984375 -4.109375 C 3.984375 -3.890625 3.929688 -3.671875 3.828125 -3.453125 C 3.734375 -3.242188 3.585938 -3.03125 3.390625 -2.8125 C 3.203125 -2.601562 2.832031 -2.28125 2.28125 -1.84375 C 1.976562 -1.59375 1.738281 -1.367188 1.5625 -1.171875 C 1.382812 -0.972656 1.257812 -0.78125 1.1875 -0.59375 L 4.078125 -0.59375 L 4.078125 0 Z M 0.40625 0 "/></g></g></g><g fill="#664147" fill-opacity="1"><g transform="translate(40.455349, 150.814804)"><g><path d="M 4.15625 -2.765625 C 4.15625 -1.847656 3.992188 -1.144531 3.671875 -0.65625 C 3.347656 -0.164062 2.867188 0.078125 2.234375 0.078125 C 1.585938 0.078125 1.101562 -0.160156 0.78125 -0.640625 C 0.46875 -1.128906 0.3125 -1.835938 0.3125 -2.765625 C 0.3125 -3.722656 0.46875 -4.4375 0.78125 -4.90625 C 1.09375 -5.382812 1.582031 -5.625 2.25 -5.625 C 2.90625 -5.625 3.382812 -5.382812 3.6875 -4.90625 C 4 -4.425781 4.15625 -3.710938 4.15625 -2.765625 Z M 3.4375 -2.765625 C 3.4375 -3.566406 3.34375 -4.144531 3.15625 -4.5 C 2.976562 -4.863281 2.675781 -5.046875 2.25 -5.046875 C 1.8125 -5.046875 1.5 -4.867188 1.3125 -4.515625 C 1.125 -4.160156 1.03125 -3.578125 1.03125 -2.765625 C 1.03125 -1.984375 1.125 -1.410156 1.3125 -1.046875 C 1.507812 -0.679688 1.816406 -0.5 2.234375 -0.5 C 2.648438 -0.5 2.953125 -0.679688 3.140625 -1.046875 C 3.335938 -1.421875 3.4375 -1.992188 3.4375 -2.765625 Z M 3.4375 -2.765625 "/></g></g></g><g fill="#664147" fill-opacity="1"><g transform="translate(44.925811, 150.814804)"><g/></g></g><g fill="#664147" fill-opacity="1"><g transform="translate(35.984405, 250.005538)"><g><path d="M 0.609375 0 L 0.609375 -0.59375 L 2.03125 -0.59375 L 2.03125 -4.859375 L 0.78125 -3.96875 L 0.78125 -4.640625 L 2.078125 -5.53125 L 2.734375 -5.53125 L 2.734375 -0.59375 L 4.078125 -0.59375 L 4.078125 0 Z M 0.609375 0 "/></g></g></g><g fill="#664147" fill-opacity="1"><g transform="translate(40.455349, 250.005538)"><g><path d="M 4.140625 -1.796875 C 4.140625 -1.210938 3.960938 -0.753906 3.609375 -0.421875 C 3.265625 -0.0859375 2.785156 0.078125 2.171875 0.078125 C 1.660156 0.078125 1.242188 -0.03125 0.921875 -0.25 C 0.609375 -0.476562 0.410156 -0.804688 0.328125 -1.234375 L 1.03125 -1.3125 C 1.1875 -0.769531 1.570312 -0.5 2.1875 -0.5 C 2.570312 -0.5 2.867188 -0.613281 3.078125 -0.84375 C 3.296875 -1.070312 3.40625 -1.382812 3.40625 -1.78125 C 3.40625 -2.132812 3.296875 -2.414062 3.078125 -2.625 C 2.859375 -2.84375 2.566406 -2.953125 2.203125 -2.953125 C 2.015625 -2.953125 1.835938 -2.921875 1.671875 -2.859375 C 1.503906 -2.804688 1.335938 -2.707031 1.171875 -2.5625 L 0.484375 -2.5625 L 0.671875 -5.53125 L 3.8125 -5.53125 L 3.8125 -4.9375 L 1.3125 -4.9375 L 1.203125 -3.171875 C 1.515625 -3.410156 1.894531 -3.53125 2.34375 -3.53125 C 2.894531 -3.53125 3.332031 -3.367188 3.65625 -3.046875 C 3.976562 -2.734375 4.140625 -2.316406 4.140625 -1.796875 Z M 4.140625 -1.796875 "/></g></g></g><g fill="#664147" fill-opacity="1"><g transform="translate(44.925811, 250.005538)"><g/></g></g><g fill="#664147" fill-opacity="1"><g transform="translate(35.984405, 349.196285)"><g><path d="M 0.609375 0 L 0.609375 -0.59375 L 2.03125 -0.59375 L 2.03125 -4.859375 L 0.78125 -3.96875 L 0.78125 -4.640625 L 2.078125 -5.53125 L 2.734375 -5.53125 L 2.734375 -0.59375 L 4.078125 -0.59375 L 4.078125 0 Z M 0.609375 0 "/></g></g></g><g fill="#664147" fill-opacity="1"><g transform="translate(40.455349, 349.196285)"><g><path d="M 4.15625 -2.765625 C 4.15625 -1.847656 3.992188 -1.144531 3.671875 -0.65625 C 3.347656 -0.164062 2.867188 0.078125 2.234375 0.078125 C 1.585938 0.078125 1.101562 -0.160156 0.78125 -0.640625 C 0.46875 -1.128906 0.3125 -1.835938 0.3125 -2.765625 C 0.3125 -3.722656 0.46875 -4.4375 0.78125 -4.90625 C 1.09375 -5.382812 1.582031 -5.625 2.25 -5.625 C 2.90625 -5.625 3.382812 -5.382812 3.6875 -4.90625 C 4 -4.425781 4.15625 -3.710938 4.15625 -2.765625 Z M 3.4375 -2.765625 C 3.4375 -3.566406 3.34375 -4.144531 3.15625 -4.5 C 2.976562 -4.863281 2.675781 -5.046875 2.25 -5.046875 C 1.8125 -5.046875 1.5 -4.867188 1.3125 -4.515625 C 1.125 -4.160156 1.03125 -3.578125 1.03125 -2.765625 C 1.03125 -1.984375 1.125 -1.410156 1.3125 -1.046875 C 1.507812 -0.679688 1.816406 -0.5 2.234375 -0.5 C 2.648438 -0.5 2.953125 -0.679688 3.140625 -1.046875 C 3.335938 -1.421875 3.4375 -1.992188 3.4375 -2.765625 Z M 3.4375 -2.765625 "/></g></g></g><g fill="#664147" fill-opacity="1"><g transform="translate(44.925811, 349.196285)"><g/></g></g><g fill="#664147" fill-opacity="1"><g transform="translate(40.460969, 448.387033)"><g><path d="M 4.140625 -1.796875 C 4.140625 -1.210938 3.960938 -0.753906 3.609375 -0.421875 C 3.265625 -0.0859375 2.785156 0.078125 2.171875 0.078125 C 1.660156 0.078125 1.242188 -0.03125 0.921875 -0.25 C 0.609375 -0.476562 0.410156 -0.804688 0.328125 -1.234375 L 1.03125 -1.3125 C 1.1875 -0.769531 1.570312 -0.5 2.1875 -0.5 C 2.570312 -0.5 2.867188 -0.613281 3.078125 -0.84375 C 3.296875 -1.070312 3.40625 -1.382812 3.40625 -1.78125 C 3.40625 -2.132812 3.296875 -2.414062 3.078125 -2.625 C 2.859375 -2.84375 2.566406 -2.953125 2.203125 -2.953125 C 2.015625 -2.953125 1.835938 -2.921875 1.671875 -2.859375 C 1.503906 -2.804688 1.335938 -2.707031 1.171875 -2.5625 L 0.484375 -2.5625 L 0.671875 -5.53125 L 3.8125 -5.53125 L 3.8125 -4.9375 L 1.3125 -4.9375 L 1.203125 -3.171875 C 1.515625 -3.410156 1.894531 -3.53125 2.34375 -3.53125 C 2.894531 -3.53125 3.332031 -3.367188 3.65625 -3.046875 C 3.976562 -2.734375 4.140625 -2.316406 4.140625 -1.796875 Z M 4.140625 -1.796875 "/></g></g></g><g fill="#664147" fill-opacity="1"><g transform="translate(44.925812, 448.387033)"><g/></g></g><g fill="#664147" fill-opacity="1"><g transform="translate(40.460969, 547.577757)"><g><path d="M 4.15625 -2.765625 C 4.15625 -1.847656 3.992188 -1.144531 3.671875 -0.65625 C 3.347656 -0.164062 2.867188 0.078125 2.234375 0.078125 C 1.585938 0.078125 1.101562 -0.160156 0.78125 -0.640625 C 0.46875 -1.128906 0.3125 -1.835938 0.3125 -2.765625 C 0.3125 -3.722656 0.46875 -4.4375 0.78125 -4.90625 C 1.09375 -5.382812 1.582031 -5.625 2.25 -5.625 C 2.90625 -5.625 3.382812 -5.382812 3.6875 -4.90625 C 4 -4.425781 4.15625 -3.710938 4.15625 -2.765625 Z M 3.4375 -2.765625 C 3.4375 -3.566406 3.34375 -4.144531 3.15625 -4.5 C 2.976562 -4.863281 2.675781 -5.046875 2.25 -5.046875 C 1.8125 -5.046875 1.5 -4.867188 1.3125 -4.515625 C 1.125 -4.160156 1.03125 -3.578125 1.03125 -2.765625 C 1.03125 -1.984375 1.125 -1.410156 1.3125 -1.046875 C 1.507812 -0.679688 1.816406 -0.5 2.234375 -0.5 C 2.648438 -0.5 2.953125 -0.679688 3.140625 -1.046875 C 3.335938 -1.421875 3.4375 -1.992188 3.4375 -2.765625 Z M 3.4375 -2.765625 "/></g></g></g><g fill="#664147" fill-opacity="1"><g transform="translate(44.925812, 547.577757)"><g/></g></g><g clip-path="url(#2761a7dbd0)"><g clip-path="url(#ce578a5d54)"><path fill="#40c9a2" d="M 51.175781 69.210938 L 732.175781 69.210938 L 732.175781 545.460938 L 51.175781 545.460938 Z M 51.175781 69.210938 " fill-opacity="1" fill-rule="nonzero"/></g></g><g clip-path="url(#4b6054c739)"><g clip-path="url(#86b6963d71)"><path fill="#40c9a2" d="M 51.175781 69.210938 L 732.175781 69.210938 L 732.175781 545.460938 L 51.175781 545.460938 Z M 51.175781 69.210938 " fill-opacity="1" fill-rule="nonzero"/></g></g><g clip-path="url(#6f4de58b7b)"><g clip-path="url(#2553d2410b)"><path fill="#40c9a2" d="M 51.175781 69.210938 L 732.175781 69.210938 L 732.175781 545.460938 L 51.175781 545.460938 Z M 51.175781 69.210938 " fill-opacity="1" fill-rule="nonzero"/></g></g><g clip-path="url(#9762985113)"><g clip-path="url(#f705762476)"><path fill="#40c9a2" d="M 51.175781 69.210938 L 732.175781 69.210938 L 732.175781 545.460938 L 51.175781 545.460938 Z M 51.175781 69.210938 " fill-opacity="1" fill-rule="nonzero"/></g></g><g clip-path="url(#89b6611f82)"><g clip-path="url(#390ddf481f)"><path fill="#40c9a2" d="M 51.175781 69.210938 L 732.175781 69.210938 L 732.175781 545.460938 L 51.175781 545.460938 Z M 51.175781 69.210938 " fill-opacity="1" fill-rule="nonzero"/></g></g><g clip-path="url(#8b26f47476)"><g clip-path="url(#c7d10dcfcd)"><path fill="#40c9a2" d="M 51.175781 69.210938 L 732.175781 69.210938 L 732.175781 545.460938 L 51.175781 545.460938 Z M 51.175781 69.210938 " fill-opacity="1" fill-rule="nonzero"/></g></g><g clip-path="url(#d7796f4803)"><g clip-path="url(#5a547537b1)"><path fill="#40c9a2" d="M 51.175781 69.210938 L 732.175781 69.210938 L 732.175781 545.460938 L 51.175781 545.460938 Z M 51.175781 69.210938 " fill-opacity="1" fill-rule="nonzero"/></g></g><g clip-path="url(#cb0789b78b)"><g clip-path="url(#7596a04758)"><path fill="#40c9a2" d="M 51.175781 69.210938 L 732.175781 69.210938 L 732.175781 545.460938 L 51.175781 545.460938 Z M 51.175781 69.210938 " fill-opacity="1" fill-rule="nonzero"/></g></g><g clip-path="url(#f423bf3cfd)"><g clip-path="url(#1338ea5470)"><path fill="#40c9a2" d="M 51.175781 69.210938 L 732.175781 69.210938 L 732.175781 545.460938 L 51.175781 545.460938 Z M 51.175781 69.210938 " fill-opacity="1" fill-rule="nonzero"/></g></g><g clip-path="url(#79964ed37e)"><g clip-path="url(#760dfa4165)"><path fill="#40c9a2" d="M 51.175781 69.210938 L 732.175781 69.210938 L 732.175781 545.460938 L 51.175781 545.460938 Z M 51.175781 69.210938 " fill-opacity="1" fill-rule="nonzero"/></g></g><g clip-path="url(#e395ec37e6)"><g clip-path="url(#b5613e8783)"><path fill="#40c9a2" d="M 51.175781 69.210938 L 732.175781 69.210938 L 732.175781 545.460938 L 51.175781 545.460938 Z M 51.175781 69.210938 " fill-opacity="1" fill-rule="nonzero"/></g></g><g clip-path="url(#8907061674)"><g clip-path="url(#7dc1abd53d)"><path fill="#40c9a2" d="M 51.175781 69.210938 L 732.175781 69.210938 L 732.175781 545.460938 L 51.175781 545.460938 Z M 51.175781 69.210938 " fill-opacity="1" fill-rule="nonzero"/></g></g></svg>